<svg xmlns="http://www.w3.org/2000/svg" xmlns:xlink="http://www.w3.org/1999/xlink" width="100" zoomAndPan="magnify" viewBox="0 0 75 30.000001" height="40" preserveAspectRatio="xMidYMid meet" version="1.0"><defs><g/><clipPath id="2da4c1d767"><path d="M 1.210938 0 L 73.789062 0 L 73.789062 29.03125 L 1.210938 29.03125 Z M 1.210938 0 " clip-rule="nonzero"/></clipPath><clipPath id="0aee7f4354"><rect x="0" width="29" y="0" height="17"/></clipPath><clipPath id="0f390d2240"><path d="M 26.21875 0.359375 L 73.789062 0.359375 L 73.789062 29.03125 L 26.21875 29.03125 Z M 26.21875 0.359375 " clip-rule="nonzero"/></clipPath><clipPath id="31e0ce9cb5"><path d="M 34.597656 0.359375 L 82.753906 0.359375 L 74.375 29.03125 L 26.21875 29.03125 Z M 34.597656 0.359375 " clip-rule="nonzero"/></clipPath><clipPath id="3c8f1025eb"><path d="M 0.21875 0.359375 L 47.789062 0.359375 L 47.789062 29.03125 L 0.21875 29.03125 Z M 0.21875 0.359375 " clip-rule="nonzero"/></clipPath><clipPath id="23927fe607"><path d="M 8.597656 0.359375 L 56.753906 0.359375 L 48.375 29.03125 L 0.21875 29.03125 Z M 8.597656 0.359375 " clip-rule="nonzero"/></clipPath><clipPath id="6c04d3bc5a"><rect x="0" width="48" y="0" height="30"/></clipPath><clipPath id="0518d3a83b"><path d="M 31 1 L 73.789062 1 L 73.789062 20 L 31 20 Z M 31 1 " clip-rule="nonzero"/></clipPath><clipPath id="462b209dac"><path d="M 37 7 L 42.789062 7 L 42.789062 15 L 37 15 Z M 37 7 " clip-rule="nonzero"/></clipPath><clipPath id="8785c40440"><rect x="0" width="43" y="0" height="19"/></clipPath></defs><g clip-path="url(#2da4c1d767)"><path fill="#ffffff" d="M 1.210938 0 L 73.789062 0 L 73.789062 29.03125 L 1.210938 29.03125 Z M 1.210938 0 " fill-opacity="1" fill-rule="nonzero"/><path fill="#ffffff" d="M 1.210938 0 L 73.789062 0 L 73.789062 29.03125 L 1.210938 29.03125 Z M 1.210938 0 " fill-opacity="1" fill-rule="nonzero"/></g><g transform="matrix(1, 0, 0, 1, 2, 1)"><g clip-path="url(#0aee7f4354)"><g fill="#0097b2" fill-opacity="1"><g transform="translate(1.132591, 13.227577)"><g><path d="M 7.828125 0 L 6.140625 0 L 5.515625 -1.875 L 2.390625 -1.875 L 1.78125 0 L 0.125 0 L 2.9375 -8.171875 L 5.015625 -8.171875 Z M 3.875 -6.46875 L 2.828125 -3.234375 L 5.078125 -3.234375 L 4.015625 -6.46875 Z M 3.875 -6.46875 "/></g></g></g><g fill="#0097b2" fill-opacity="1"><g transform="translate(9.088888, 13.227577)"><g><path d="M 2.8125 0.125 C 2.125 0.125 1.613281 -0.0625 1.28125 -0.4375 C 0.957031 -0.820312 0.796875 -1.367188 0.796875 -2.078125 L 0.796875 -6.15625 L 2.34375 -6.15625 L 2.34375 -2.265625 C 2.34375 -1.890625 2.421875 -1.613281 2.578125 -1.4375 C 2.742188 -1.269531 2.992188 -1.1875 3.328125 -1.1875 C 3.753906 -1.1875 4.085938 -1.328125 4.328125 -1.609375 C 4.566406 -1.890625 4.6875 -2.332031 4.6875 -2.9375 L 4.6875 -6.15625 L 6.234375 -6.15625 L 6.234375 0 L 4.75 0 L 4.75 -0.90625 L 4.640625 -0.9375 C 4.441406 -0.582031 4.195312 -0.316406 3.90625 -0.140625 C 3.625 0.0351562 3.257812 0.125 2.8125 0.125 Z M 2.8125 0.125 "/></g></g></g><g fill="#0097b2" fill-opacity="1"><g transform="translate(16.213261, 13.227577)"><g><path d="M 4.25 -1.46875 L 4.65625 -0.328125 C 4.488281 -0.191406 4.273438 -0.0820312 4.015625 0 C 3.765625 0.0820312 3.476562 0.125 3.15625 0.125 C 2.488281 0.125 1.984375 -0.0546875 1.640625 -0.421875 C 1.296875 -0.785156 1.125 -1.316406 1.125 -2.015625 L 1.125 -4.9375 L 0.1875 -4.9375 L 0.1875 -6.171875 L 1.125 -6.171875 L 1.125 -7.359375 L 2.671875 -7.625 L 2.671875 -6.171875 L 4.421875 -6.171875 L 4.421875 -4.9375 L 2.671875 -4.9375 L 2.671875 -2.125 C 2.671875 -1.820312 2.734375 -1.597656 2.859375 -1.453125 C 2.984375 -1.316406 3.164062 -1.25 3.40625 -1.25 C 3.6875 -1.25 3.925781 -1.320312 4.125 -1.46875 Z M 4.25 -1.46875 "/></g></g></g><g fill="#0097b2" fill-opacity="1"><g transform="translate(20.925621, 13.227577)"><g><path d="M 3.578125 0.125 C 2.972656 0.125 2.441406 0 1.984375 -0.25 C 1.535156 -0.5 1.179688 -0.863281 0.921875 -1.34375 C 0.671875 -1.820312 0.546875 -2.398438 0.546875 -3.078125 C 0.546875 -3.753906 0.671875 -4.332031 0.921875 -4.8125 C 1.179688 -5.289062 1.535156 -5.65625 1.984375 -5.90625 C 2.441406 -6.15625 2.972656 -6.28125 3.578125 -6.28125 C 4.179688 -6.28125 4.710938 -6.15625 5.171875 -5.90625 C 5.628906 -5.65625 5.984375 -5.289062 6.234375 -4.8125 C 6.484375 -4.332031 6.609375 -3.753906 6.609375 -3.078125 C 6.609375 -2.398438 6.484375 -1.820312 6.234375 -1.34375 C 5.984375 -0.863281 5.628906 -0.5 5.171875 -0.25 C 4.710938 0 4.179688 0.125 3.578125 0.125 Z M 3.578125 -1.1875 C 4.535156 -1.1875 5.015625 -1.816406 5.015625 -3.078125 C 5.015625 -3.722656 4.890625 -4.195312 4.640625 -4.5 C 4.398438 -4.8125 4.046875 -4.96875 3.578125 -4.96875 C 2.617188 -4.96875 2.140625 -4.335938 2.140625 -3.078125 C 2.140625 -1.816406 2.617188 -1.1875 3.578125 -1.1875 Z M 3.578125 -1.1875 "/></g></g></g></g></g><g clip-path="url(#0f390d2240)"><g clip-path="url(#31e0ce9cb5)"><g transform="matrix(1, 0, 0, 1, 26, 0.00000000000000569)"><g clip-path="url(#6c04d3bc5a)"><g clip-path="url(#3c8f1025eb)"><g clip-path="url(#23927fe607)"><path fill="#0097b2" d="M 0.21875 0.359375 L 56.78125 0.359375 L 56.78125 29.03125 L 0.21875 29.03125 Z M 0.21875 0.359375 " fill-opacity="1" fill-rule="nonzero"/></g></g></g></g></g></g><g clip-path="url(#0518d3a83b)"><g transform="matrix(1, 0, 0, 1, 31, 1)"><g clip-path="url(#8785c40440)"><g fill="#ffffff" fill-opacity="1"><g transform="translate(0.62917, 14.45031)"><g><path d="M 1.171875 0 L 1.171875 -9.0625 L 5.046875 -9.0625 C 5.609375 -9.0625 6.082031 -8.972656 6.46875 -8.796875 C 6.851562 -8.628906 7.144531 -8.378906 7.34375 -8.046875 C 7.539062 -7.722656 7.640625 -7.34375 7.640625 -6.90625 C 7.640625 -6.5 7.539062 -6.144531 7.34375 -5.84375 C 7.15625 -5.539062 6.878906 -5.296875 6.515625 -5.109375 L 6.515625 -4.96875 C 7.085938 -4.820312 7.523438 -4.550781 7.828125 -4.15625 C 8.140625 -3.769531 8.296875 -3.289062 8.296875 -2.71875 C 8.296875 -1.851562 8.035156 -1.179688 7.515625 -0.703125 C 6.992188 -0.234375 6.21875 0 5.1875 0 Z M 4.671875 -5.453125 C 5.515625 -5.453125 5.9375 -5.828125 5.9375 -6.578125 C 5.9375 -6.960938 5.832031 -7.25 5.625 -7.4375 C 5.414062 -7.625 5.097656 -7.71875 4.671875 -7.71875 L 2.96875 -7.71875 L 2.96875 -5.453125 Z M 5 -1.421875 C 5.988281 -1.421875 6.484375 -1.867188 6.484375 -2.765625 C 6.484375 -3.671875 5.988281 -4.125 5 -4.125 L 2.96875 -4.125 L 2.96875 -1.421875 Z M 5 -1.421875 "/></g></g></g><g fill="#ffffff" fill-opacity="1"><g transform="translate(9.4946, 14.45031)"><g><path d="M 1.84375 -7.65625 C 1.53125 -7.65625 1.273438 -7.75 1.078125 -7.9375 C 0.890625 -8.125 0.796875 -8.367188 0.796875 -8.671875 C 0.796875 -8.960938 0.890625 -9.203125 1.078125 -9.390625 C 1.273438 -9.578125 1.53125 -9.671875 1.84375 -9.671875 C 2.050781 -9.671875 2.234375 -9.628906 2.390625 -9.546875 C 2.554688 -9.460938 2.679688 -9.34375 2.765625 -9.1875 C 2.859375 -9.039062 2.90625 -8.867188 2.90625 -8.671875 C 2.90625 -8.472656 2.859375 -8.296875 2.765625 -8.140625 C 2.679688 -7.992188 2.554688 -7.875 2.390625 -7.78125 C 2.234375 -7.695312 2.050781 -7.65625 1.84375 -7.65625 Z M 0.984375 0 L 0.984375 -6.84375 L 2.703125 -6.84375 L 2.703125 0 Z M 0.984375 0 "/></g></g></g><g fill="#ffffff" fill-opacity="1"><g transform="translate(13.177164, 14.45031)"><g><path d="M 3.375 0.125 C 2.832031 0.125 2.351562 -0.00390625 1.9375 -0.265625 C 1.53125 -0.523438 1.207031 -0.921875 0.96875 -1.453125 C 0.726562 -1.984375 0.609375 -2.640625 0.609375 -3.421875 C 0.609375 -4.203125 0.726562 -4.859375 0.96875 -5.390625 C 1.21875 -5.921875 1.554688 -6.316406 1.984375 -6.578125 C 2.410156 -6.835938 2.90625 -6.96875 3.46875 -6.96875 C 3.894531 -6.96875 4.265625 -6.894531 4.578125 -6.75 C 4.890625 -6.601562 5.148438 -6.375 5.359375 -6.0625 L 5.5 -6.09375 L 5.5 -9.59375 L 7.21875 -9.59375 L 7.21875 0 L 5.5 0 L 5.5 -0.890625 L 5.359375 -0.90625 C 5.171875 -0.582031 4.910156 -0.328125 4.578125 -0.140625 C 4.253906 0.0351562 3.851562 0.125 3.375 0.125 Z M 3.9375 -1.328125 C 4.425781 -1.328125 4.8125 -1.5 5.09375 -1.84375 C 5.375 -2.1875 5.515625 -2.710938 5.515625 -3.421875 C 5.515625 -4.117188 5.375 -4.640625 5.09375 -4.984375 C 4.8125 -5.335938 4.425781 -5.515625 3.9375 -5.515625 C 3.4375 -5.515625 3.050781 -5.34375 2.78125 -5 C 2.507812 -4.664062 2.375 -4.140625 2.375 -3.421875 C 2.375 -2.703125 2.507812 -2.171875 2.78125 -1.828125 C 3.050781 -1.492188 3.4375 -1.328125 3.9375 -1.328125 Z M 3.9375 -1.328125 "/></g></g></g><g fill="#ffffff" fill-opacity="1"><g transform="translate(21.373037, 14.45031)"><g><path d="M 3.375 0.125 C 2.832031 0.125 2.351562 -0.00390625 1.9375 -0.265625 C 1.53125 -0.523438 1.207031 -0.921875 0.96875 -1.453125 C 0.726562 -1.984375 0.609375 -2.640625 0.609375 -3.421875 C 0.609375 -4.203125 0.726562 -4.859375 0.96875 -5.390625 C 1.21875 -5.921875 1.554688 -6.316406 1.984375 -6.578125 C 2.410156 -6.835938 2.90625 -6.96875 3.46875 -6.96875 C 3.894531 -6.96875 4.265625 -6.894531 4.578125 -6.75 C 4.890625 -6.601562 5.148438 -6.375 5.359375 -6.0625 L 5.5 -6.09375 L 5.5 -9.59375 L 7.21875 -9.59375 L 7.21875 0 L 5.5 0 L 5.5 -0.890625 L 5.359375 -0.90625 C 5.171875 -0.582031 4.910156 -0.328125 4.578125 -0.140625 C 4.253906 0.0351562 3.851562 0.125 3.375 0.125 Z M 3.9375 -1.328125 C 4.425781 -1.328125 4.8125 -1.5 5.09375 -1.84375 C 5.375 -2.1875 5.515625 -2.710938 5.515625 -3.421875 C 5.515625 -4.117188 5.375 -4.640625 5.09375 -4.984375 C 4.8125 -5.335938 4.425781 -5.515625 3.9375 -5.515625 C 3.4375 -5.515625 3.050781 -5.34375 2.78125 -5 C 2.507812 -4.664062 2.375 -4.140625 2.375 -3.421875 C 2.375 -2.703125 2.507812 -2.171875 2.78125 -1.828125 C 3.050781 -1.492188 3.4375 -1.328125 3.9375 -1.328125 Z M 3.9375 -1.328125 "/></g></g></g><g fill="#ffffff" fill-opacity="1"><g transform="translate(29.568911, 14.45031)"><g><path d="M 6.765625 -3.03125 L 2.359375 -3.03125 C 2.410156 -2.4375 2.582031 -2.003906 2.875 -1.734375 C 3.164062 -1.460938 3.5625 -1.328125 4.0625 -1.328125 C 4.445312 -1.328125 4.757812 -1.398438 5 -1.546875 C 5.25 -1.691406 5.445312 -1.914062 5.59375 -2.21875 L 5.734375 -2.21875 L 6.875 -1.484375 C 6.644531 -1.003906 6.304688 -0.613281 5.859375 -0.3125 C 5.410156 -0.0195312 4.8125 0.125 4.0625 0.125 C 3.351562 0.125 2.738281 -0.00390625 2.21875 -0.265625 C 1.707031 -0.535156 1.3125 -0.9375 1.03125 -1.46875 C 0.75 -2 0.609375 -2.648438 0.609375 -3.421875 C 0.609375 -4.191406 0.753906 -4.84375 1.046875 -5.375 C 1.347656 -5.914062 1.75 -6.316406 2.25 -6.578125 C 2.75 -6.835938 3.3125 -6.96875 3.9375 -6.96875 C 4.90625 -6.96875 5.644531 -6.710938 6.15625 -6.203125 C 6.664062 -5.691406 6.921875 -4.9375 6.921875 -3.9375 C 6.921875 -3.582031 6.910156 -3.304688 6.890625 -3.109375 Z M 5.28125 -4.140625 C 5.269531 -4.660156 5.148438 -5.039062 4.921875 -5.28125 C 4.691406 -5.519531 4.363281 -5.640625 3.9375 -5.640625 C 3.0625 -5.640625 2.550781 -5.140625 2.40625 -4.140625 Z M 5.28125 -4.140625 "/></g></g></g><g clip-path="url(#462b209dac)"><g fill="#ffffff" fill-opacity="1"><g transform="translate(37.002235, 14.45031)"><g><path d="M 0.984375 0 L 0.984375 -6.84375 L 2.65625 -6.84375 L 2.65625 -5.828125 L 2.78125 -5.796875 C 2.945312 -6.179688 3.164062 -6.460938 3.4375 -6.640625 C 3.707031 -6.816406 4.035156 -6.90625 4.421875 -6.90625 C 4.804688 -6.90625 5.097656 -6.835938 5.296875 -6.703125 L 5.015625 -5.21875 L 4.875 -5.203125 C 4.769531 -5.242188 4.664062 -5.273438 4.5625 -5.296875 C 4.457031 -5.316406 4.332031 -5.328125 4.1875 -5.328125 C 3.707031 -5.328125 3.335938 -5.15625 3.078125 -4.8125 C 2.828125 -4.476562 2.703125 -3.941406 2.703125 -3.203125 L 2.703125 0 Z M 0.984375 0 "/></g></g></g></g></g></g></g></svg>