<svg xmlns="http://www.w3.org/2000/svg"><defs><font id="remixicon" horiz-adv-x="1200"><font-face ascent="1200" descent="0" font-family="remixicon" units-per-em="1200"/><glyph d="M600 550c82.85 0 150-67.15 150-150 0-42.5-17.65-80.8-46-108.1L608.5 200H750V100H450v86.2l184.65 177.75c9.5 9.15 15.35 21.9 15.35 36.05 0 27.6-22.4 50-50 50s-50-22.4-50-50H450c0 82.85 67.15 150 150 150m300 0V350h100v200h100V100h-100v150H800v300zm-700 50c0-126.35 58.55-239 150-312.3V166.9c-149.45 86.45-250 248-250 433.1zm400 500c259.25 0 472.45-197.35 497.5-450H996.9C972.3 847.3 804 1000 600 1000c-123.2 0-233.4-55.7-306.75-143.25L400 750H100v300l122.35-122.3C314 1033.2 449.2 1100 600 1100" glyph-name="24-hours-fill" horiz-adv-x="1200" unicode=""/><glyph d="M600 550c82.85 0 150-67.15 150-150 0-42.5-17.65-80.8-46-108.1L608.5 200H750V100H450v86.2l184.65 177.75c9.5 9.15 15.35 21.9 15.35 36.05 0 27.6-22.4 50-50 50s-50-22.4-50-50H450c0 82.85 67.15 150 150 150m300 0V350h100v200h100V100h-100v150H800v300zm-700 50c0-126.35 58.55-239 150-312.3V166.9c-149.45 86.45-250 248-250 433.1zm400 500c259.25 0 472.45-197.35 497.5-450H996.9C972.3 847.3 804 1000 600 1000c-137.5 0-258.8-69.35-330.75-175H400V725H100v300h100V900c91.2 121.5 236.45 200 400 200" glyph-name="24-hours-line" horiz-adv-x="1200" unicode=""/><glyph d="M150 1050h900a50 50 0 0 0 50-50V200a50 50 0 0 0-50-50H150a50 50 0 0 0-50 50v800a50 50 0 0 0 50 50m425-525v75h-50v150h-75V600h-75v150h-75V525h150v-75h75v75zm325-75L787.5 600 900 750h-87.5L725 637.5V750h-75V450h75v112.5L812.5 450z" glyph-name="4k-fill" horiz-adv-x="1200" unicode=""/><glyph d="M200 950V250h800v700zm-50 100h900a50 50 0 0 0 50-50V200a50 50 0 0 0-50-50H150a50 50 0 0 0-50 50v800a50 50 0 0 0 50 50m425-525h-50v-75h-75v75H300v225h75V600h75v150h75V600h50zm325-75h-87.5L725 562.5V450h-75v300h75V637.5L812.5 750H900L787.5 600z" glyph-name="4k-line" horiz-adv-x="1200" unicode=""/><glyph d="M250 450V350c0-52.7 47.5-100 100-100h150V150H350a200 200 0 0 0-200 200v100zm650 250 220-550h-107.75L952.2 300H747.7l-59.95-150h-107.7L800 700zm-50-144.25L787.65 400h124.6zM150 1050h300a150 150 0 0 0 111.75-250A150 150 0 0 0 450 550H150zm300-300H250V650h200a50 50 0 0 1 0 100m400 300a200 200 0 0 0 200-200V750H950v100a100 100 0 0 1-100 100H700v100zM450 950H250V850h200a50 50 0 1 1 0 100" glyph-name="a-b" horiz-adv-x="1200" unicode=""/><glyph d="M150 950.25c0 55.1 44.65 99.75 99.75 99.75h700.5c55.1 0 99.75-44.65 99.75-99.75v-700.5A99.75 99.75 0 0 0 950.25 150h-700.5A99.75 99.75 0 0 0 150 249.75zM317.85 300h574.5A349.6 349.6 0 0 1 605.1 450a349.6 349.6 0 0 1-287.25-150M600 550a175 175 0 1 1 0 350 175 175 0 0 1 0-350" glyph-name="account-box-fill" horiz-adv-x="1200" unicode=""/><glyph d="M150 950.25c0 55.1 44.65 99.75 99.75 99.75h700.5c55.1 0 99.75-44.65 99.75-99.75v-700.5A99.75 99.75 0 0 0 950.25 150h-700.5A99.75 99.75 0 0 0 150 249.75zm100-.25V250h700v700zm148.6-659a499 499 0 0 0-87.55 48.9A349.7 349.7 0 0 0 605.1 500c120 0 225.85-60.35 288.9-152.35a499.8 499.8 0 0 0-86.2-51.25A249.65 249.65 0 0 1 605.1 400c-85.75 0-161.5-43.2-206.5-109M600 550a175 175 0 1 0 0 350 175 175 0 0 0 0-350m0 100a75 75 0 1 1 0 150 75 75 0 0 1 0-150" glyph-name="account-box-line" horiz-adv-x="1200" unicode=""/><glyph d="M600 1100c276 0 500-224 500-500S876 100 600 100 100 324 100 600s224 500 500 500M301.15 429.2C374.55 319.7 484.75 250 608 250c123.2 0 233.45 69.65 306.8 179.2A448.4 448.4 0 0 1 608 550a448.4 448.4 0 0 1-306.85-120.8M600 650a150 150 0 1 1 0 300 150 150 0 0 1 0-300" glyph-name="account-circle-fill" horiz-adv-x="1200" unicode=""/><glyph d="M600 100c-276.15 0-500 223.85-500 500s223.85 500 500 500 500-223.85 500-500-223.85-500-500-500M350.65 287.2A398.3 398.3 0 0 1 600 200c98.5 0 188.65 35.6 258.35 94.6A348.95 348.95 0 0 1 608 400a349.05 349.05 0 0 1-257.35-112.8M280.8 359A448.75 448.75 0 0 0 608 500a448.6 448.6 0 0 0 318.1-131.7 400 400 0 1 1-645.3-9.35zM600 550a200 200 0 1 0 0 400 200 200 0 0 0 0-400m0 100a100 100 0 1 1 0 200 100 100 0 0 1 0-200" glyph-name="account-circle-line" horiz-adv-x="1200" unicode=""/><glyph d="M700 150 600 50 500 150H249.75A99.75 99.75 0 0 0 150 249.75v700.5c0 55.1 44.65 99.75 99.75 99.75h700.5c55.1 0 99.75-44.65 99.75-99.75v-700.5A99.75 99.75 0 0 0 950.25 150zM317.85 300h574.5A349.6 349.6 0 0 1 605.1 450a349.6 349.6 0 0 1-287.25-150M600 550a175 175 0 1 1 0 350 175 175 0 0 1 0-350" glyph-name="account-pin-box-fill" horiz-adv-x="1200" unicode=""/><glyph d="M700 150 600 50 500 150H249.75A99.75 99.75 0 0 0 150 249.75v700.5c0 55.1 44.65 99.75 99.75 99.75h700.5c55.1 0 99.75-44.65 99.75-99.75v-700.5A99.75 99.75 0 0 0 950.25 150zm250 100v700H250V250h291.4l58.6-58.6 58.6 58.6zm-551.4 41a499 499 0 0 0-87.55 48.9A349.7 349.7 0 0 0 605.1 500c120 0 225.85-60.35 288.9-152.35a499.8 499.8 0 0 0-86.2-51.25A249.65 249.65 0 0 1 605.1 400c-85.75 0-161.5-43.2-206.5-109M600 550a175 175 0 1 0 0 350 175 175 0 0 0 0-350m0 100a75 75 0 1 1 0 150 75 75 0 0 1 0-150" glyph-name="account-pin-box-line" horiz-adv-x="1200" unicode=""/><glyph d="M712.8 112.8 600 0 487.2 112.8C265.5 164 100 362.8 100 600c0 276 224 500 500 500s500-224 500-500c0-237.2-165.5-436-387.2-487.2M301.15 429.2C374.55 319.7 484.75 250 608 250c123.2 0 233.45 69.65 306.8 179.2A448.4 448.4 0 0 1 608 550a448.4 448.4 0 0 1-306.85-120.8M600 650a150 150 0 1 1 0 300 150 150 0 0 1 0-300" glyph-name="account-pin-circle-fill" horiz-adv-x="1200" unicode=""/><glyph d="M487.25 112.75C265.4 163.9 100 362.65 100 600c0 276.15 223.85 500 500 500s500-223.85 500-500c0-237.35-165.4-436.1-387.25-487.25L600 0zM350.6 287.15a397.65 397.65 0 0 1 159.1-76.95l28-6.45L600 141.4l62.35 62.35 28 6.5a397.8 397.8 0 0 1 168 84.3A348.95 348.95 0 0 1 608 400c-101.8 0-193.5-43.5-257.4-112.85M280.8 359A448.75 448.75 0 0 0 608 500a448.6 448.6 0 0 0 318.1-131.7 400 400 0 1 1-645.3-9.35zM600 550a200 200 0 1 0 0 400 200 200 0 0 0 0-400m0 100a100 100 0 1 1 0 200 100 100 0 0 1 0-200" glyph-name="account-pin-circle-line" horiz-adv-x="1200" unicode=""/><glyph d="M200 1050h800a50 50 0 0 0 50-50V200a50 50 0 0 0-50-50H200a50 50 0 0 0-50 50v800a50 50 0 0 0 50 50m350-400H350V550h200V350h100v200h200v100H650v200H550z" glyph-name="add-box-fill" horiz-adv-x="1200" unicode=""/><glyph d="M200 1050h800a50 50 0 0 0 50-50V200a50 50 0 0 0-50-50H200a50 50 0 0 0-50 50v800a50 50 0 0 0 50 50m50-100V250h700v700zm300-300v200h100V650h200V550H650V350H550v200H350v100z" glyph-name="add-box-line" horiz-adv-x="1200" unicode=""/><glyph d="M600 100c-276.15 0-500 223.85-500 500s223.85 500 500 500 500-223.85 500-500-223.85-500-500-500m-50 550H350V550h200V350h100v200h200v100H650v200H550z" glyph-name="add-circle-fill" horiz-adv-x="1200" unicode=""/><glyph d="M550 650v200h100V650h200V550H650V350H550v200H350v100zm50-550c-276.15 0-500 223.85-500 500s223.85 500 500 500 500-223.85 500-500-223.85-500-500-500m0 100a400 400 0 1 1 0 800 400 400 0 0 1 0-800" glyph-name="add-circle-line" horiz-adv-x="1200" unicode=""/><glyph d="M550 650v300h100V650h300V550H650V250H550v300H250v100z" glyph-name="add-fill" horiz-adv-x="1200" unicode=""/><glyph d="M550 650v300h100V650h300V550H650V250H550v300H250v100z" glyph-name="add-line" horiz-adv-x="1200" unicode=""/><glyph d="M600 500V100H200a400 400 0 0 0 400 400m0 50c-165.75 0-300 134.25-300 300s134.25 300 300 300 300-134.25 300-300-134.25-300-300-300m450-200h50V100H700v250h50v50a150 150 0 0 0 300 0zm-100 0v50a50 50 0 0 1-100 0v-50z" glyph-name="admin-fill" horiz-adv-x="1200" unicode=""/><glyph d="M600 500V400a300 300 0 0 1-300-300H200a400 400 0 0 0 400 400m0 50c-165.75 0-300 134.25-300 300s134.25 300 300 300 300-134.25 300-300-134.25-300-300-300m0 100c110.5 0 200 89.5 200 200s-89.5 200-200 200-200-89.5-200-200 89.5-200 200-200m450-300h50V100H700v250h50v50a150 150 0 0 0 300 0zm-100 0v50a50 50 0 0 1-100 0v-50z" glyph-name="admin-line" horiz-adv-x="1200" unicode=""/><glyph d="M1050 1050a50 50 0 0 0 50-50V200a50 50 0 0 0-50-50H150a50 50 0 0 0-50 50v800a50 50 0 0 0 50 50zM469.95 800h-100l-160-400h107.7l20 50h164.5l20-50H629.9zM950 800H850V700h-50a150 150 0 0 1-8.8-299.75l8.8-.25h150zM850 600V500h-50l-5.85.35a50 50 0 0 0 0 99.3l5.85.35zm-430.05 55.75L462.2 550h-84.6z" glyph-name="advertisement-fill" horiz-adv-x="1200" unicode=""/><glyph d="M1050 1050a50 50 0 0 0 50-50V200a50 50 0 0 0-50-50H150a50 50 0 0 0-50 50v800a50 50 0 0 0 50 50zm-50-100H200V250h800zM469.95 800 629.9 400H522.15l-20 50h-164.5l-20-50h-107.7l160 400zM950 800V400H800a150 150 0 0 0 0 300h49.95l.05 100zM850 600h-50a50 50 0 0 1-5.85-99.65L800 500h50zm-430.05 55.75L377.6 550h84.6z" glyph-name="advertisement-line" horiz-adv-x="1200" unicode=""/><glyph d="M620 523.35 870 190a25 25 0 0 0-20-40H350a25 25 0 0 0-20 40l250 333.35a25 25 0 0 0 40 0M900 250v100h100v600H200V350h100V250H149.6a49.7 49.7 0 0 0-49.6 50v700c0 27.6 22.75 50 49.6 50h900.8c27.4 0 49.6-22.25 49.6-50V300c0-27.6-22.75-50-49.6-50z" glyph-name="airplay-fill" horiz-adv-x="1200" unicode=""/><glyph d="M620 523.35 870 190a25 25 0 0 0-20-40H350a25 25 0 0 0-20 40l250 333.35a25 25 0 0 0 40 0M600 383.5 500 250h200zM900 250v100h100v600H200V350h100V250H149.6a49.7 49.7 0 0 0-49.6 50v700c0 27.6 22.75 50 49.6 50h900.8c27.4 0 49.6-22.25 49.6-50V300c0-27.6-22.75-50-49.6-50z" glyph-name="airplay-line" horiz-adv-x="1200" unicode=""/><glyph d="M600 100a450 450 0 1 0 0 900 450 450 0 0 0 0-900m50 450v250H550V450h250v100zM87.35 885.9l176.75 176.75 70.75-70.7L158 815.15zm848.5 176.75 176.8-176.75-70.7-70.75-176.8 176.8 70.75 70.7z" glyph-name="alarm-fill" horiz-adv-x="1200" unicode=""/><glyph d="M600 100a450 450 0 1 0 0 900 450 450 0 0 0 0-900m0 100a350 350 0 1 1 0 700 350 350 0 0 1 0-700m50 350h150V450H550v350h100zM87.35 885.9l176.75 176.75 70.75-70.7L158 815.15zm848.5 176.75 176.8-176.75-70.7-70.75-176.8 176.8 70.75 70.7z" glyph-name="alarm-line" horiz-adv-x="1200" unicode=""/><glyph d="M200 200v300a400 400 0 1 0 800 0V200h50V100H150v100zm100 300h100a200 200 0 0 0 200 200v100a300 300 0 0 1-300-300m250 600h100V950H550zm438.9-140.4 70.7-70.7-106-106.05-70.75 70.7zm-848.5-70.7 70.7 70.7 106.05-106-70.65-70.8z" glyph-name="alarm-warning-fill" horiz-adv-x="1200" unicode=""/><glyph d="M200 200v300a400 400 0 1 0 800 0V200h50V100H150v100zm100 0h600v300a300 300 0 1 1-600 0zm250 900h100V950H550zm438.9-140.4 70.7-70.7-106-106.05-70.75 70.7zm-848.5-70.7 70.7 70.7 106.05-106-70.65-70.8zM350 500a250 250 0 0 0 250 250V650a150 150 0 0 1-150-150z" glyph-name="alarm-warning-line" horiz-adv-x="1200" unicode=""/><glyph d="M600 1100c276 0 500-224 500-500S876 100 600 100 100 324 100 600s224 500 500 500m0-700c110.65 0 200 89.35 200 200s-89.35 200-200 200-200-89.35-200-200 89.35-200 200-200m0 250c27.5 0 50-22.5 50-50s-22.5-50-50-50-50 22.5-50 50 22.5 50 50 50" glyph-name="album-fill" horiz-adv-x="1200" unicode=""/><glyph d="M600 200a400 400 0 1 1 0 800 400 400 0 0 1 0-800m0-100c-276.15 0-500 223.85-500 500s223.85 500 500 500 500-223.85 500-500-223.85-500-500-500m0 400a100 100 0 1 1 0 200 100 100 0 0 1 0-200m0-100a200 200 0 1 0 0 400 200 200 0 0 0 0-400" glyph-name="album-line" horiz-adv-x="1200" unicode=""/><glyph d="m643.3 1050 476.3-825a50 50 0 0 0-43.3-75H123.7a50 50 0 0 0-43.3 75l476.3 825a50 50 0 0 0 86.6 0M550 400V300h100v100zm0 350V500h100v250z" glyph-name="alert-fill" horiz-adv-x="1200" unicode=""/><glyph d="m643.3 1050 476.3-825a50 50 0 0 0-43.3-75H123.7a50 50 0 0 0-43.3 75l476.3 825a50 50 0 0 0 86.6 0m-433-800h779.4L600 925zM550 400h100V300H550zm0 350h100V500H550z" glyph-name="alert-line" horiz-adv-x="1200" unicode=""/><glyph d="M600 1100a425 425 0 0 0 425-425c0-325-275-600-425-600S175 350 175 675a425 425 0 0 0 425 425m275-500a225 225 0 0 1-223.75-248.75 225 225 0 0 1 247.5 247.5A228 228 0 0 1 875 600m-550 0c-8 0-15.95-.4-23.75-1.25a225 225 0 0 1 247.5-247.5A225 225 0 0 1 325 600" glyph-name="aliens-fill" horiz-adv-x="1200" unicode=""/><glyph d="M600 1100a425 425 0 0 0 425-425c0-325-275-600-425-600S175 350 175 675a425 425 0 0 0 425 425m0-100a325 325 0 0 1-325-325c0-239.7 208.25-500 325-500s325 260.3 325 500a325 325 0 0 1-325 325m275-350c8 0 15.95-.4 23.75-1.25a225 225 0 0 0-247.5-247.5A225 225 0 0 0 875 650m-550 0a225 225 0 0 0 223.75-248.75 225 225 0 0 0-247.5 247.5C309 649.6 317 650 325 650" glyph-name="aliens-line" horiz-adv-x="1200" unicode=""/><glyph d="M150 250h900V150H150zm250 300h150L350 350 150 550h150v500h100zm500 0h150L850 350 650 550h150v500h100z" glyph-name="align-bottom" horiz-adv-x="1200" unicode=""/><glyph d="M150 1000h900V900H150zm100-750h700V150H250zM150 500h900V400H150zm100 250h700V650H250z" glyph-name="align-center" horiz-adv-x="1200" unicode=""/><glyph d="M150 1000h900V900H150zm0-750h900V150H150zm0 250h900V400H150zm0 250h900V650H150z" glyph-name="align-justify" horiz-adv-x="1200" unicode=""/><glyph d="M150 1000h900V900H150zm0-750h700V150H150zm0 250h900V400H150zm0 250h700V650H150z" glyph-name="align-left" horiz-adv-x="1200" unicode=""/><glyph d="M150 1000h900V900H150zm200-750h700V150H350zM150 500h900V400H150zm200 250h700V650H350z" glyph-name="align-right" horiz-adv-x="1200" unicode=""/><glyph d="M150 1050h900V950H150zm250-400V150H300v500H150l200 200 200-200zm500 0V150H800v500H650l200 200 200-200z" glyph-name="align-top" horiz-adv-x="1200" unicode=""/><glyph d="M150 650h900V550H150zm750-350V150H800v150H650l200 200 200-200zm-500 0V150H300v150H150l200 200 200-200zm500 600h150L850 700 650 900h150v150h100zm-500 0h150L350 700 150 900h150v150h100z" glyph-name="align-vertically" horiz-adv-x="1200" unicode=""/><glyph d="M1071.1 432.1c-191.5 57.65-302.75 92-333.9 103.1a620.5 620.5 0 0 1 66 166H640v55.2h200v34H640v92.4h-76.8c-14 0-15.6-12.4-15.6-12.4v-79.6H360v-34h187.6v-55.2H394v-30.8h311.2A548.6 548.6 0 0 0 660.8 562c-70.4 23.2-109.6 39.2-195.6 47.2-162.8 15.6-200.4-74-206.4-128.8-8.8-83.6 65.2-151.6 175.6-151.6s184 51.2 254 136c58.35-27.9 166.9-76.25 325.7-145.1A499.5 499.5 0 0 0 600 100c-276.15 0-500 223.85-500 500s223.85 500 500 500 500-223.85 500-500a499.2 499.2 0 0 0-28.9-167.9m-649.5-50.5c-116.8 0-135.2 74-129.2 104.8s40 70.8 105.2 70.8c74.8 0 141.6-19.2 222-58-56.8-74-126-117.6-198-117.6" glyph-name="alipay-fill" horiz-adv-x="1200" unicode=""/><glyph d="M920.4 360.5c-108.65 47.5-186 82.3-232 104.3-70-84.8-143.6-136-254-136s-184.4 68-175.6 151.6c6 54.8 43.6 144.4 206.4 128.8 86-8 125.2-24 195.6-47.2 18 33.2 33.2 70 44.4 108.8H394v30.8h153.6v55.2H360v34h187.6v79.6s1.6 12.4 15.6 12.4H640v-92.4h200v-34H640v-55.2h163.2a620.5 620.5 0 0 0-66-166c25.5-9.1 104.85-33.8 238-74.15a400 400 0 1 1-54.8-100.6zM600 100c-276.15 0-500 223.85-500 500s223.85 500 500 500 500-223.85 500-500-223.85-500-500-500M421.6 381.6c72 0 141.2 43.6 198 117.6-80.4 38.8-147.2 58-222 58-65.2 0-99.2-40-105.2-70.8s12.4-104.8 129.2-104.8" glyph-name="alipay-line" horiz-adv-x="1200" unicode=""/><glyph d="M1099.8 288.5c0-36.35-20.25-106.35-65.7-144.8-9.1-7-18.25-3.05-14.25 7.15 13.25 32.4 43.6 107.35 29.35 124.6-10 13.1-51.5 12.15-86.9 9.1-16.2-2.05-30.35-3-41.4-5.25-10.15-.85-12.25 8.15-2.05 15.15 13.1 9.25 27.25 16.25 43.5 21.4 57.5 17.2 124 6.85 133.5-4.15 1.8-2.1 4-8 4-23.15zm-96.05-64.7a371 371 0 0 0-41.5-27.5c-106.1-63.75-243.5-97.15-362.9-97.15-192.15 0-364 70.85-494.4 189.4-11.15 9.1-1.9 22.3 11.15 15.15 140.5-82 314.4-131.6 494.45-131.6 113.25 0 235.4 21.2 351.75 66.8 8.1 3.05 17.2 7.2 25.15 10.1 18.35 8.25 34.5-12.15 16.3-25.2m-308.5 551.5c0 52.05 2.05 82.7-15.2 109-15.3 21.65-41.65 34.65-78.4 32.6-39.9-2.2-82.75-28.35-93.7-76.3-2.1-11-8.55-21.8-21.8-24.15l-121.8 15.5c-8.7 2-21.9 8.65-17.6 26.05 26.15 137.6 143.75 185.55 254.9 192h26.15c61 0 139.35-17.45 189.5-63.2 60.85-56.8 54.4-133.1 54.4-216V574.45c0-58.9 23.85-85 47.9-115.7 6.5-10.95 8.7-23.85-2.25-32.75-24-21.75-69.7-60.95-95.85-82.7-8.7-6.65-24.4-7.35-30.5-2.25-38.5 32.25-47.9 50.15-71.75 82.9-41.5-43.55-76.3-67.6-117.75-80.65a351.8 351.8 0 0 0-89.2-10.8c-104.5 0-187.3 65.15-187.3 194 0 102.45 54.5 172.1 135 205.05 80.5 33 197.5 43.5 235.2 43.7zm-23.9-259.6c26 43.6 23.85 79.3 23.85 159.25-32.55 0-65.3-2.25-93.55-8.9-52.25-15.15-93.7-48.05-93.7-117.75 0-54.5 28.35-91.6 76.25-91.6 6.6 0 12.4.8 17.45 2.25 33.5 9.3 54.4 26.1 69.7 56.75" glyph-name="amazon-fill" horiz-adv-x="1200" unicode=""/><glyph d="M781.25 469C725.9 388.05 644.85 349.8 550 349.8c-115.2 0-213.8 88.65-199.65 206.2 15.75 130.4 117 186.5 285.4 207.15 30.05 3.65 42.5 4.7 107.35 9.5l6.9.5v10.75c0 89.8-53.4 151.1-125 151.1-71.85 0-122-37.35-152.75-126.3l-94.5 32.6C422.1 969.8 509.65 1035 625 1035c130.15 0 225-108.9 225-251.1 0-132.45 8.15-237.8 24.15-277.85 17.8-44.6 24.3-55.85 44.2-80.65l-78-62.55c-26.15 32.6-37.65 52.45-59.05 106.1v.05zm281.6-296.25c-13.55-10-37.1-4.05-26.45 22 13.25 32.4 27.35 70.4 13.1 87.6-10.5 12.75-23.35 19.1-51.35 19.1-23 0-34.5-3-49.75-4-10.2-.65-14.65 14.85-4.55 22a148 148 0 0 0 43.5 21.4c57.5 17.2 125.25 7.75 133.5-4.15 18.25-26.5-9.95-128.45-58-164zm-59.1 54.2a378 378 0 0 0-41.5-34.75c-106.1-80.8-243.5-123-362.9-123-192.15 0-364 89.65-494.4 239.75-11.15 11.5-1.9 28.3 11.15 19.2C256.6 224.3 430.5 161.5 610.55 161.5c113.25 0 235.4 26.85 351.75 84.65 8.1 3.8 17.2 9 25.15 12.7 18.35 10.5 34.5-15.3 16.3-31.9m-253.25 446c-62.9-4.7-74.8-5.65-102.6-9.05-127.6-15.65-189.85-50.15-198.25-119.9-6.3-52.15 40.5-94.2 100.35-94.2 101.95 0 175.85 61.4 201.1 223.15z" glyph-name="amazon-line" horiz-adv-x="1200" unicode=""/><glyph d="M650 706.3V203.6c180.95 22.65 324.35 166.8 346.9 348.6H850L1035.2 850a502.05 502.05 0 0 0 64.8-247.5C1100 325 876.15 100 600 100S100 325 100 602.5c0 90 23.55 174.45 64.8 247.5L350 552.2H203.1c22.55-181.8 166-325.95 346.9-348.6v502.7a200.1 200.1 0 0 0 50 393.7 200 200 0 0 0 50-393.7M600 800a100 100 0 1 1 0 200 100 100 0 0 1 0-200" glyph-name="anchor-fill" horiz-adv-x="1200" unicode=""/><glyph d="M102.5 650H350V550H203.1A400.2 400.2 0 0 1 550 203.1v503.2a200.1 200.1 0 0 0 50 393.7 200 200 0 0 0 50-393.7V203.1A400.2 400.2 0 0 1 996.9 550H850v100h247.5c1.65-16.45 2.5-33.15 2.5-50 0-276.15-223.85-500-500-500S100 323.85 100 600c0 16.85.85 33.55 2.5 50M600 800a100 100 0 1 1 0 200 100 100 0 0 1 0-200" glyph-name="anchor-line" horiz-adv-x="1200" unicode=""/><glyph d="M945.05 700a149.95 149.95 0 0 1 203.75-55.65 175 175 0 0 0-98.75-177.5L1050 150H750v100a150 150 0 0 1-299.75 8.8L450 250V150H150v316.8a175 175 0 0 0-98.95 177.65A149.95 149.95 0 0 1 254.9 700zm-93.25 350a175 175 0 0 1 222.3-143 175 175 0 0 0-164.5-156.75L900 750H300a175 175 0 0 0-174.1 157 175 175 0 0 1 222.3 143z" glyph-name="ancient-gate-fill" horiz-adv-x="1200" unicode=""/><glyph d="M945.05 700a149.95 149.95 0 0 1 203.75-55.65 175 175 0 0 0-98.75-177.5L1050 150H700v100a100 100 0 0 1-92.5 99.75l-7.5.25a100 100 0 0 1-99.75-92.5L500 250V150H150v316.8a175 175 0 0 0-98.95 177.65A149.95 149.95 0 0 1 254.9 700zM896.5 600H303.45l-3.8-3.95a251.4 251.4 0 0 0-74.3-50.1l-4.8-1.95L250 530l-.05-280 150.1.05v3.6l.5 11.15c7.45 100.8 89 179.95 192.7 184.9l10.4.25 11.15-.5A200 200 0 0 0 799.75 260.1l.2-10.05L950 250l.05 280 29.35 14-4.75 2a250.1 250.1 0 0 0-74.3 50.05zm-44.7 450a175 175 0 0 1 222.3-143 175 175 0 0 0-164.5-156.75L900 750H300a175 175 0 0 0-174.1 157 175 175 0 0 1 222.3 143zM780 950H419.95a275.35 275.35 0 0 0-74.5-90.8l-12.4-9.2H866.9l-.6.4a275.9 275.9 0 0 0-78.95 86.1z" glyph-name="ancient-gate-line" horiz-adv-x="1200" unicode=""/><glyph d="M625.65 1099.95a450.2 450.2 0 0 1 498.5-293.85A225.05 225.05 0 0 0 950 605.6V250l100-.05v-100H150v100h100V605.6A225.15 225.15 0 0 0 75.8 806.1a450.2 450.2 0 0 1 498.6 293.8h51.25zM850 600H350V250h500z" glyph-name="ancient-pavilion-fill" horiz-adv-x="1200" unicode=""/><glyph d="M625.65 1099.95a450.2 450.2 0 0 1 498.5-293.85A225.05 225.05 0 0 0 950 605.6V250l100-.05v-100H150v100h100V605.6A225.15 225.15 0 0 0 75.8 806.1a450.2 450.2 0 0 1 498.6 293.8h51.25zM850 600H350V250h500zM600 933.65l-5.5-7.75A550.6 550.6 0 0 0 270 713.2l-17.9-3.65 33.65-9.5H914.4l33.4 9.5-.55.1a550.5 550.5 0 0 0-341.8 216.3L600 933.7z" glyph-name="ancient-pavilion-line" horiz-adv-x="1200" unicode=""/><glyph d="M319.1 1001.6A448.1 448.1 0 0 0 600 1100c106.25 0 203.9-36.8 280.9-98.4l72.65 72.65 70.7-70.7-72.65-72.65A448.1 448.1 0 0 0 1050 650v-50H150v50c0 106.25 36.8 203.9 98.4 280.9l-72.65 72.6 70.7 70.7 72.65-72.65zM150 500h900V150a50 50 0 0 0-50-50H200a50 50 0 0 0-50 50zm300 250a50 50 0 1 1 0 100 50 50 0 0 1 0-100m300 0a50 50 0 1 1 0 100 50 50 0 0 1 0-100" glyph-name="android-fill" horiz-adv-x="1200" unicode=""/><glyph d="M950 550H250V200h700zm0 100a350 350 0 0 1-700 0zm-630.9 351.6A448.1 448.1 0 0 0 600 1100c106.25 0 203.9-36.8 280.9-98.4l72.65 72.65 70.7-70.7-72.65-72.65A448.1 448.1 0 0 0 1050 650V150a50 50 0 0 0-50-50H200a50 50 0 0 0-50 50v500c0 106.25 36.8 203.9 98.4 280.9l-72.65 72.6 70.7 70.7 72.65-72.65zM450 750a50 50 0 1 0 0 100 50 50 0 0 0 0-100m300 0a50 50 0 1 0 0 100 50 50 0 0 0 0-100" glyph-name="android-line" horiz-adv-x="1200" unicode=""/><glyph d="m600 1100 465-166-70.9-615.5L600 100 205.9 318.5 135 934zm0-110.5L309.3 337h108.4l58.45 146h246.7l58.5-146H889.7zM684.9 573H515.1L600 777.5z" glyph-name="angularjs-fill" horiz-adv-x="1200" unicode=""/><glyph d="m876.15 367.5 24.5 13.5 55.9 485.5L600 993.85l-356.55-127.3 55.95-485.5 23.65-13.15L600 989.5zM821.2 337h-39.9l-58.45 146h-246.7l-58.5-146H378.8L600 214.35zM600 1100l465-166-70.9-615.5L600 100 205.9 318.5 135 934zm84.9-527L600 777.5 515.1 573z" glyph-name="angularjs-line" horiz-adv-x="1200" unicode=""/><glyph d="M700 1000h100a250 250 0 0 0 250-250V550H950v200a150 150 0 0 1-150 150H700V750L450 950l250 200zm50-350V150a50 50 0 0 0-50-50H200a50 50 0 0 0-50 50v500a50 50 0 0 0 50 50h500a50 50 0 0 0 50-50" glyph-name="anticlockwise-2-fill" horiz-adv-x="1200" unicode=""/><glyph d="m670.7 900 91.45-91.4-70.75-70.75L479.3 950l212.1 212.15 70.75-70.75-91.45-91.4H800a250 250 0 0 0 250-250V550H950v200a150 150 0 0 1-150 150zM750 650V150a50 50 0 0 0-50-50H200a50 50 0 0 0-50 50v500a50 50 0 0 0 50 50h500a50 50 0 0 0 50-50m-100-50H250V200h400z" glyph-name="anticlockwise-2-line" horiz-adv-x="1200" unicode=""/><glyph d="M300 700h150L250 450 50 700h150v100a250 250 0 0 0 250 250h200V950H450a150 150 0 0 1-150-150zm250 50h500a50 50 0 0 0 50-50V200a50 50 0 0 0-50-50H550a50 50 0 0 0-50 50v500a50 50 0 0 0 50 50" glyph-name="anticlockwise-fill" horiz-adv-x="1200" unicode=""/><glyph d="M550 750h500a50 50 0 0 0 50-50V200a50 50 0 0 0-50-50H550a50 50 0 0 0-50 50v500a50 50 0 0 0 50 50m50-100V250h400v400zm-300 20.7 91.4 91.45 70.75-70.75L250 479.3 37.85 691.4l70.75 70.75L200 670.7V800a250 250 0 0 0 250 250h200V950H450a150 150 0 0 1-150-150z" glyph-name="anticlockwise-line" horiz-adv-x="1200" unicode=""/><glyph d="M600 1100c276.15 0 500-223.85 500-500S876.15 100 600 100 100 323.85 100 600s223.85 500 500 500M441.15 432.85c-19.75 23.85-44.3 32.35-73.95 25.45l-7.5-2.05-29.5-50.8a41.15 41.15 0 0 1 68.3-45.8l3.1 4.65 39.5 68.55zM660.5 767c-24.4-20.2-49-79.85-14.5-139.35l152-263.3a41.2 41.2 0 0 1 73.8 36.1l-2.45 5-40.1 69.6h59.5a41 41 0 0 1 41.1 41.15 41 41 0 0 1-36 40.8l-5.15.3h-107L672 747.15l-11.5 19.8zm13.9 152.2a41.25 41.25 0 0 1-53.15-10.5l-3.1-4.6-18.35-31.65-17.95 31.65a41.2 41.2 0 0 1-73.8-36.1l2.45-5 41.9-72.85L418.15 557.5H313.3a41 41 0 0 1-41.1-41.1c0-21.05 15.6-38.3 35.95-40.85l5.15-.3h374c17 32-3 77.45-40.5 81.9l-6.05.35H513.1L689.5 863a41.15 41.15 0 0 1-15.1 56.2" glyph-name="app-store-fill" horiz-adv-x="1200" unicode=""/><glyph d="M600 1100c276.15 0 500-223.85 500-500S876.15 100 600 100 100 323.85 100 600s223.85 500 500 500m0-100a400 400 0 1 1 0-800 400 400 0 0 1 0 800M441.15 432.85l-39.5-68.5a41.15 41.15 0 1 0-71.4 41.1l29.45 50.8c33 10.3 60.05 2.4 81.45-23.4M660.5 767l121.15-209.7H888.7a41 41 0 0 0 41.15-41.1 41 41 0 0 0-41.15-41.15h-59.5l40.15-69.55A41.2 41.2 0 0 0 798 364.35l-152 263.3c-34.5 59.5-9.9 119.15 14.5 139.35m13.9 152.2c19.75-11.3 26.4-36.5 15.1-56.25L513.1 557.5h127.65c41.3 0 64.5-48.6 46.55-82.25h-374a41 41 0 0 0-41.1 41.15 41 41 0 0 0 41.1 41.1h104.85L552.4 790.15l-41.9 72.8a41.2 41.2 0 0 0 71.35 41.15l17.95-31.65 18.35 31.65a41.15 41.15 0 0 0 56.25 15.1" glyph-name="app-store-line" horiz-adv-x="1200" unicode=""/><glyph d="M581.2 838.9c-43.8 0-111.6 49.8-183 48-94.2-1.2-180.6-54.6-229.2-139.2-97.8-169.8-25.2-420.6 70.2-558.6 46.8-67.2 102-142.8 175.2-140.4 70.2 3 96.6 45.6 181.8 45.6 84.6 0 108.6-45.6 183-43.8 75.6 1.2 123.6 68.4 169.8 136.2 53.4 78 75.6 153.6 76.8 157.8-1.8.6-147 56.4-148.8 224.4-1.2 140.4 114.6 207.6 120 210.6-66 96.6-167.4 107.4-202.8 109.8-92.4 7.2-169.8-50.4-213-50.4m156 141.6c39 46.8 64.8 112.2 57.6 177-55.8-2.4-123-37.2-163.2-84-36-41.4-67.2-108-58.8-171.6 61.8-4.8 125.4 31.8 164.4 78.6" glyph-name="apple-fill" horiz-adv-x="1200" unicode=""/><glyph d="M786.45 789.6c-23.65 1.85-49.05-3.8-87.95-18.65 3.3 1.25-37.1-14.5-48.4-18.5-25.1-8.75-45.75-13.55-68.9-13.55-22.9 0-44 4.6-68.3 12.75-7.75 2.65-15.55 5.5-25.25 9.3-4.1 1.6-19.1 7.6-22.4 8.85-32.4 12.7-50.65 17.5-65.8 17.1-57.6-.75-112.15-34-143.8-89.1-64.6-112.2-28.85-314.95 65.6-451.55 50.3-72.2 77.8-98 88.9-97.65 11.1.5 19.25 2.85 39.15 11.25l8.35 3.55c50.25 21.45 85.5 30.9 138.55 30.9 51.05 0 85.15-9.3 133.4-30.1l8.4-3.6c19.9-8.5 27.1-10.4 39.6-10.1 17.9.25 39.95 20.85 88.9 92.7 13.4 19.55 25.25 40.15 35.5 61a368 368 0 0 0-19.6 17.35c-64.45 61.4-104.3 144.2-105.4 246.5a331.25 331.25 0 0 0 70.5 209.05 206.2 206.2 0 0 1-61.05 12.5m7.75 99.7c35.4-2.4 136.8-13.2 202.8-109.8-5.4-3-121.2-70.2-120-210.6 1.8-168 147-223.8 148.8-224.4-1.2-4.2-23.4-79.8-76.8-157.8-46.2-67.8-94.2-135-169.8-136.2-74.4-1.8-98.4 43.8-183 43.8-85.2 0-111.6-42.6-181.8-45.6-73.2-2.4-128.4 73.2-175.2 140.4-95.4 138-168 388.8-70.2 558.6 48.6 84.6 135 138 229.2 139.2 71.4 1.8 139.2-48 183-48 43.2 0 120.6 57.6 213 50.4m-57 91.2c-39-46.8-102.6-83.4-164.4-78.6-8.4 63.6 22.8 130.2 58.8 171.6 40.2 46.8 107.4 81.6 163.2 84 7.2-64.8-18.6-130.2-57.6-177" glyph-name="apple-line" horiz-adv-x="1200" unicode=""/><glyph d="M350 625a225 225 0 1 0 0 450 225 225 0 0 0 0-450m0-500a225 225 0 1 0 0 450 225 225 0 0 0 0-450m500 500a225 225 0 1 0 0 450 225 225 0 0 0 0-450m0-500a225 225 0 1 0 0 450 225 225 0 0 0 0-450" glyph-name="apps-2-fill" horiz-adv-x="1200" unicode=""/><glyph d="M325 625a225 225 0 1 0 0 450 225 225 0 0 0 0-450m25-500a225 225 0 1 0 0 450 225 225 0 0 0 0-450m500 500a225 225 0 1 0 0 450 225 225 0 0 0 0-450m0-500a225 225 0 1 0 0 450 225 225 0 0 0 0-450M325 725a125 125 0 1 1 0 250 125 125 0 0 1 0-250m25-500a125 125 0 1 1 0 250 125 125 0 0 1 0-250m500 500a125 125 0 1 1 0 250 125 125 0 0 1 0-250m0-500a125 125 0 1 1 0 250 125 125 0 0 1 0-250" glyph-name="apps-2-line" horiz-adv-x="1200" unicode=""/><glyph d="M337.5 1075A212.5 212.5 0 0 0 550 862.5V650H337.5a212.5 212.5 0 1 0 0 425m0-525H550V337.5A212.5 212.5 0 1 0 337.5 550m525 525a212.5 212.5 0 1 0 0-425H650v212.5A212.5 212.5 0 0 0 862.5 1075M650 550h212.5A212.5 212.5 0 1 0 650 337.5z" glyph-name="apps-fill" horiz-adv-x="1200" unicode=""/><glyph d="M337.5 1075A212.5 212.5 0 0 0 550 862.5V650H337.5a212.5 212.5 0 1 0 0 425M450 750v112.5A112.5 112.5 0 1 1 337.5 750zM337.5 550H550V337.5A212.5 212.5 0 1 0 337.5 550m0-100A112.5 112.5 0 1 1 450 337.5V450zm525 625a212.5 212.5 0 1 0 0-425H650v212.5A212.5 212.5 0 0 0 862.5 1075m0-325A112.5 112.5 0 1 1 750 862.5V750zM650 550h212.5A212.5 212.5 0 1 0 650 337.5zm100-100V337.5A112.5 112.5 0 1 1 862.5 450z" glyph-name="apps-line" horiz-adv-x="1200" unicode=""/><glyph d="M150 550h900V149.9c0-27.55-22.25-49.9-49.65-49.9h-800.7A49.75 49.75 0 0 0 150 149.9zm0 500.1c0 27.55 22.25 49.9 49.65 49.9h800.7c27.4 0 49.65-22.3 49.65-49.9V650H150zM450 950V850h300v100zm0-550V300h300v100z" glyph-name="archive-drawer-fill" horiz-adv-x="1200" unicode=""/><glyph d="M150 1050.4c0 27.4 22.25 49.6 49.65 49.6h800.7a50 50 0 0 0 49.65-49.6V149.6a49.65 49.65 0 0 0-49.65-49.6h-800.7A50 50 0 0 0 150 149.6zM950 650v350H250V650zm0-100H250V200h700zM450 900h300V800H450zm0-450h300V350H450z" glyph-name="archive-drawer-line" horiz-adv-x="1200" unicode=""/><glyph d="M150 700h900V199.8c0-27.5-22.25-49.8-49.65-49.8h-800.7A49.7 49.7 0 0 0 150 199.8zm300-100V500h300v100zm-350 400c0 27.6 22.75 50 49.6 50h900.8c27.4 0 49.6-22.2 49.6-50V800H100z" glyph-name="archive-fill" horiz-adv-x="1200" unicode=""/><glyph d="M150 700h-50v299.85c0 27.7 22.75 50.15 49.6 50.15h900.8a49.5 49.5 0 0 0 49.6-50.15V700h-50V199.95a49.8 49.8 0 0 0-49.65-49.95h-800.7A49.8 49.8 0 0 0 150 199.95zm800 0H250V250h700zM200 950V800h800v150zm250-350h300V500H450z" glyph-name="archive-line" horiz-adv-x="1200" unicode=""/><glyph d="M600 1100c276 0 500-224 500-500S876 100 600 100 100 324 100 600s224 500 500 500m50-500v200H550V600H400l200-200 200 200z" glyph-name="arrow-down-circle-fill" horiz-adv-x="1200" unicode=""/><glyph d="M600 1100c276 0 500-224 500-500S876 100 600 100 100 324 100 600s224 500 500 500m0-900c221 0 400 179 400 400s-179 400-400 400-400-179-400-400 179-400 400-400m50 400h150L600 400 400 600h150v200h100z" glyph-name="arrow-down-circle-line" horiz-adv-x="1200" unicode=""/><glyph d="M650 600h350L600 200 200 600h350v400h100z" glyph-name="arrow-down-fill" horiz-adv-x="1200" unicode=""/><glyph d="m650 391.4 268.2 268.2 70.7-70.7L600 200 211.1 588.9l70.7 70.7L550 391.4V1000h100z" glyph-name="arrow-down-line" horiz-adv-x="1200" unicode=""/><glyph d="M600 400 300 700h600z" glyph-name="arrow-down-s-fill" horiz-adv-x="1200" unicode=""/><glyph d="m600 541.4 247.5 247.5 70.7-70.7L600 400 281.8 718.2l70.7 70.7z" glyph-name="arrow-down-s-line" horiz-adv-x="1200" unicode=""/><glyph d="M600 500 400 700h400z" glyph-name="arrow-drop-down-fill" horiz-adv-x="1200" unicode=""/><glyph d="M600 450 387.85 662.15l70.75 70.7L600 591.4l141.4 141.45 70.75-70.7z" glyph-name="arrow-drop-down-line" horiz-adv-x="1200" unicode=""/><glyph d="m450 600 200 200V400z" glyph-name="arrow-drop-left-fill" horiz-adv-x="1200" unicode=""/><glyph d="m591.4 600 141.45-141.4-70.7-70.75L450 600l212.15 212.15 70.7-70.75z" glyph-name="arrow-drop-left-line" horiz-adv-x="1200" unicode=""/><glyph d="M700 600 500 400v400z" glyph-name="arrow-drop-right-fill" horiz-adv-x="1200" unicode=""/><glyph d="M608.6 600 467.15 741.4l70.7 70.75L750 600 537.85 387.85l-70.7 70.75z" glyph-name="arrow-drop-right-line" horiz-adv-x="1200" unicode=""/><glyph d="m600 700 200-200H400z" glyph-name="arrow-drop-up-fill" horiz-adv-x="1200" unicode=""/><glyph d="M600 608.6 458.6 467.15l-70.75 70.7L600 750l212.15-212.15-70.75-70.7z" glyph-name="arrow-drop-up-line" horiz-adv-x="1200" unicode=""/><glyph d="M400 850V650L100 900l300 250V950h250a400 400 0 1 0 0-800H200v100h450a300 300 0 1 1 0 600z" glyph-name="arrow-go-back-fill" horiz-adv-x="1200" unicode=""/><glyph d="m291.4 850 126.8-126.8-70.7-70.7L100 900l247.5 247.5 70.7-70.7L291.4 950H650a400 400 0 1 0 0-800H200v100h450a300 300 0 1 1 0 600z" glyph-name="arrow-go-back-line" horiz-adv-x="1200" unicode=""/><glyph d="M800 850H550a300 300 0 1 1 0-600h450V150H550a400 400 0 1 0 0 800h250v200l300-250-300-250z" glyph-name="arrow-go-forward-fill" horiz-adv-x="1200" unicode=""/><glyph d="M908.6 850H550a300 300 0 1 1 0-600h450V150H550a400 400 0 1 0 0 800h358.6l-126.8 126.8 70.7 70.7L1100 900 852.5 652.5l-70.7 70.7z" glyph-name="arrow-go-forward-line" horiz-adv-x="1200" unicode=""/><glyph d="M600 1100c276 0 500-224 500-500S876 100 600 100 100 324 100 600s224 500 500 500m0-450v150L400 600l200-200v150h200v100z" glyph-name="arrow-left-circle-fill" horiz-adv-x="1200" unicode=""/><glyph d="M600 1100c276 0 500-224 500-500S876 100 600 100 100 324 100 600s224 500 500 500m0-900c221 0 400 179 400 400s-179 400-400 400-400-179-400-400 179-400 400-400m0 450h200V550H600V400L400 600l200 200z" glyph-name="arrow-left-circle-line" horiz-adv-x="1200" unicode=""/><glyph d="M618 547.5 865.5 300H299.9v565.6l247.5-247.5 282.8 282.85 70.75-70.7z" glyph-name="arrow-left-down-fill" horiz-adv-x="1200" unicode=""/><glyph d="m450 520.5 430.35 430.35 70.7-70.7L520.7 449.8H900v-100H350v550h100V520.55z" glyph-name="arrow-left-down-line" horiz-adv-x="1200" unicode=""/><glyph d="M600 550V200L200 600l400 400V650h400V550z" glyph-name="arrow-left-fill" horiz-adv-x="1200" unicode=""/><glyph d="M391.4 650H1000V550H391.4l268.2-268.2-70.7-70.7L200 600l388.9 388.9 70.7-70.7z" glyph-name="arrow-left-line" horiz-adv-x="1200" unicode=""/><glyph d="M800 400v200l250-250-250-250v200H200v100zm-400 700V900.05l600-.05V800H400V600L150 850z" glyph-name="arrow-left-right-fill" horiz-adv-x="1200" unicode=""/><glyph d="M802.5 597.5 1050 350 802.5 102.5l-70.7 70.7 126.8 126.85L200 300v100h658.6L731.8 526.8zm-405 500 70.7-70.7L341.4 900H1000V800H341.4l126.8-126.8-70.7-70.7L150 850z" glyph-name="arrow-left-right-line" horiz-adv-x="1200" unicode=""/><glyph d="m400 600 300 300V300z" glyph-name="arrow-left-s-fill" horiz-adv-x="1200" unicode=""/><glyph d="m541.4 600 247.5-247.5-70.7-70.7L400 600l318.2 318.2 70.7-70.7z" glyph-name="arrow-left-s-line" horiz-adv-x="1200" unicode=""/><glyph d="m618 652.65 282.9-282.8-70.75-70.75-282.8 282.85-247.5-247.5v565.7H865.5z" glyph-name="arrow-left-up-fill" horiz-adv-x="1200" unicode=""/><glyph d="m470.7 800 430.35-430.35-70.7-70.7L400 729.3V350H300v550h550V800z" glyph-name="arrow-left-up-line" horiz-adv-x="1200" unicode=""/><glyph d="M600 1100c276 0 500-224 500-500S876 100 600 100 100 324 100 600s224 500 500 500m0-450H400V550h200V400l200 200-200 200z" glyph-name="arrow-right-circle-fill" horiz-adv-x="1200" unicode=""/><glyph d="M600 650v150l200-200-200-200v150H400v100zm0 450c276 0 500-224 500-500S876 100 600 100 100 324 100 600s224 500 500 500m0-900c221 0 400 179 400 400s-179 400-400 400-400-179-400-400 179-400 400-400" glyph-name="arrow-right-circle-line" horiz-adv-x="1200" unicode=""/><glyph d="M581.85 547.5 299 830.25 369.7 901l282.85-282.85L900 865.65V300H334.35z" glyph-name="arrow-right-down-fill" horiz-adv-x="1200" unicode=""/><glyph d="M729.5 399.8 299.1 830.15l70.7 70.7 430.35-430.3V849.8h100v-550h-550v100z" glyph-name="arrow-right-down-line" horiz-adv-x="1200" unicode=""/><glyph d="M600 550H200v100h400v350l400-400-400-400z" glyph-name="arrow-right-fill" horiz-adv-x="1200" unicode=""/><glyph d="M808.6 650 540.4 918.2l70.7 70.7L1000 600 611.1 211.1l-70.7 70.7L808.6 550H200v100z" glyph-name="arrow-right-line" horiz-adv-x="1200" unicode=""/><glyph d="M800 600 500 300v600z" glyph-name="arrow-right-s-fill" horiz-adv-x="1200" unicode=""/><glyph d="M658.6 600 411.1 847.5l70.7 70.7L800 600 481.8 281.8l-70.7 70.7z" glyph-name="arrow-right-s-line" horiz-adv-x="1200" unicode=""/><glyph d="M652.5 582 369.7 299.1 299 369.85l282.85 282.8-247.5 247.5H900V334.5z" glyph-name="arrow-right-up-fill" horiz-adv-x="1200" unicode=""/><glyph d="M800.2 729.3 369.85 298.95l-70.7 70.7L729.45 800H350.2v100h550V350h-100z" glyph-name="arrow-right-up-line" horiz-adv-x="1200" unicode=""/><glyph d="M600 1100c276 0 500-224 500-500S876 100 600 100 100 324 100 600s224 500 500 500m50-500h150L600 800 400 600h150V400h100z" glyph-name="arrow-up-circle-fill" horiz-adv-x="1200" unicode=""/><glyph d="M600 1100c276 0 500-224 500-500S876 100 600 100 100 324 100 600s224 500 500 500m0-900c221 0 400 179 400 400s-179 400-400 400-400-179-400-400 179-400 400-400m50 400V400H550v200H400l200 200 200-200z" glyph-name="arrow-up-circle-line" horiz-adv-x="1200" unicode=""/><glyph d="M600 800H400.05L400 200H300v600H100l250 250zm500-400L850 150 600 400h200v600h100V400z" glyph-name="arrow-up-down-fill" horiz-adv-x="1200" unicode=""/><glyph d="m597.5 802.5-70.7-70.7L400 858.6V200H300v658.6L173.25 731.8l-70.75 70.7L350 1050zm500-405L850 150 602.5 397.5l70.7 70.7 126.85-126.8L800 1000h100V341.4l126.8 126.8z" glyph-name="arrow-up-down-line" horiz-adv-x="1200" unicode=""/><glyph d="M650 600V200H550v400H200l400 400 400-400z" glyph-name="arrow-up-fill" horiz-adv-x="1200" unicode=""/><glyph d="M650 808.6V200H550v608.6L281.8 540.4l-70.7 70.7L600 1000l388.9-388.9-70.7-70.7z" glyph-name="arrow-up-line" horiz-adv-x="1200" unicode=""/><glyph d="m600 800 300-300H300z" glyph-name="arrow-up-s-fill" horiz-adv-x="1200" unicode=""/><glyph d="M600 658.6 352.5 411.1l-70.7 70.7L600 800l318.2-318.2-70.7-70.7z" glyph-name="arrow-up-s-line" horiz-adv-x="1200" unicode=""/><glyph d="M300 900h600V300H300zm0 200h100V950H300zm0-850h100V100H300zM100 900h150V800H100zm0-500h150V300H100zm850 500h150V800H950zm0-500h150V300H950zm-150 700h100V950H800zm0-850h100V100H800z" glyph-name="artboard-2-fill" horiz-adv-x="1200" unicode=""/><glyph d="M400 800V400h400v400zM300 900h600V300H300zm0 200h100V950H300zm0-850h100V100H300zM100 900h150V800H100zm0-500h150V300H100zm850 500h150V800H950zm0-500h150V300H950zm-150 700h100V950H800zm0-850h100V100H800z" glyph-name="artboard-2-line" horiz-adv-x="1200" unicode=""/><glyph d="M429.3 350H150v100h900V350H770.7l162.15-162.15-70.7-70.7L650 329.3V200H550v129.3L337.85 117.15l-70.7 70.7zM250 1050h700a50 50 0 0 0 50-50V500H200v500a50 50 0 0 0 50 50" glyph-name="artboard-fill" horiz-adv-x="1200" unicode=""/><glyph d="M429.3 350H150v100h900V350H770.7l162.15-162.15-70.7-70.7L650 329.3V200H550v129.3L337.85 117.15l-70.7 70.7zM250 1050h700a50 50 0 0 0 50-50V500H200v500a50 50 0 0 0 50 50m50-100V600h600v350z" glyph-name="artboard-line" horiz-adv-x="1200" unicode=""/><glyph d="M1000 100H200a50 50 0 0 0-50 50v900a50 50 0 0 0 50 50h800a50 50 0 0 0 50-50V150a50 50 0 0 0-50-50M350 900V700h200v200zm0-300V500h500v100zm0-200V300h500v100zm300 450V750h200v100z" glyph-name="article-fill" horiz-adv-x="1200" unicode=""/><glyph d="M1000 100H200a50 50 0 0 0-50 50v900a50 50 0 0 0 50 50h800a50 50 0 0 0 50-50V150a50 50 0 0 0-50-50m-50 100v800H250V200zM350 900h200V700H350zm0-300h500V500H350zm0-200h500V300H350zm300 450h200V750H650z" glyph-name="article-line" horiz-adv-x="1200" unicode=""/><glyph d="M1050 1050a50 50 0 0 0 50-50V200a50 50 0 0 0-50-50H150a50 50 0 0 0-50 50v800a50 50 0 0 0 50 50zM900 600H800V450H650V350h250zM550 850H300V600h100v150h150z" glyph-name="aspect-ratio-fill" horiz-adv-x="1200" unicode=""/><glyph d="M1050 1050a50 50 0 0 0 50-50V200a50 50 0 0 0-50-50H150a50 50 0 0 0-50 50v800a50 50 0 0 0 50 50zm-50-100H200V250h800zM650 350v100h150v150h100V350zM550 850V750H400V600H300v250z" glyph-name="aspect-ratio-line" horiz-adv-x="1200" unicode=""/><glyph d="M650 1050V686.65L964.7 868.3l50-86.6-314.65-181.65L1014.7 418.3l-50-86.6L650 513.4V150H550v363.4L235.3 331.7l-50 86.6L499.95 600 185.3 781.7l50 86.6L550 686.65V1050z" glyph-name="asterisk" horiz-adv-x="1200" unicode=""/><glyph d="M600 100c-276.15 0-500 223.85-500 500s223.85 500 500 500 500-223.85 500-500-223.85-500-500-500m400 500a400 400 0 1 1-198.4-345.55l-50.4 86.35A300 300 0 1 0 900 600v-50a50 50 0 0 0-100 0v200h-67.7a200 200 0 1 1 3.3-297 150 150 0 0 1 264.4 97zM600 700a100 100 0 1 0 0-200 100 100 0 0 0 0 200" glyph-name="at-fill" horiz-adv-x="1200" unicode=""/><glyph d="M1000 600a400 400 0 1 1-178.1-332.85l55.5-83.2A497.65 497.65 0 0 0 600 100c-276.15 0-500 223.85-500 500s223.85 500 500 500 500-223.85 500-500v-75a175 175 0 0 0-319.8-98.3A250 250 0 1 0 750 800h100V525a75 75 0 0 1 150 0zM600 750a150 150 0 1 1 0-300 150 150 0 0 1 0 300" glyph-name="at-line" horiz-adv-x="1200" unicode=""/><glyph d="M741.4 812.15 458.6 529.3a50 50 0 1 1 70.7-70.7l282.85 282.8A150 150 0 1 1 600 953.55L317.15 670.7A250 250 0 1 1 670.7 317.2L953.55 600l70.7-70.7L741.4 246.45a350 350 0 1 0-495 495l282.9 282.8a250 250 0 0 0 353.5-353.5L600 387.8A150 150 0 1 0 387.85 600L670.7 882.85z" glyph-name="attachment-2" horiz-adv-x="1200" unicode=""/><glyph d="m1049.85 1050.4.15-900.8a50 50 0 0 0-49.65-49.6h-800.7A49.65 49.65 0 0 0 150 149.6v900.8a50 50 0 0 0 49.65 49.6h800.5c27.45 0 49.7-22.2 49.7-49.6M450 550v200a50 50 0 1 0 100 0V550a50 50 0 0 1 100 0v200a150 150 0 0 1-300 0V550a250 250 0 0 1 500 0v250H750V550a150 150 0 0 0-300 0" glyph-name="attachment-fill" horiz-adv-x="1200" unicode=""/><glyph d="M700 525v275a200 200 0 1 1-400 0V525a325 325 0 1 1 650 0v475h100V525a425 425 0 1 0-850 0v275a300 300 0 1 0 600 0V525a175 175 0 0 0-350 0v275h100V525a75 75 0 0 1 150 0" glyph-name="attachment-line" horiz-adv-x="1200" unicode=""/><glyph d="M700 200V100H100v100zm29.3 965.7 388.9-388.9-70.7-70.8-53 17.7L870.65 600l282.85-282.85-70.7-70.7L800 529.3 679.8 409.1l14.15-56.6-70.75-70.7-388.9 388.9 70.75 70.7 56.5-14.1 314.7 314.65-17.65 53z" glyph-name="auction-fill" horiz-adv-x="1200" unicode=""/><glyph d="M700 200V100H100v100zm29.3 965.7 388.9-388.9-70.7-70.8-53 17.7L870.65 600l282.85-282.85-70.7-70.7L800 529.3 679.8 409.1l14.15-56.6-70.75-70.7-388.9 388.9 70.75 70.7 56.5-14.1 314.7 314.65-17.65 53zm35.35-176.8L411.1 635.4l176.75-176.8L941.4 812.1z" glyph-name="auction-line" horiz-adv-x="1200" unicode=""/><glyph d="M850 437.75V94.15a25 25 0 0 0-37.85-21.45L600 200 387.85 72.7A25 25 0 0 0 350 94.2v343.5a400 400 0 1 0 500 0zM600 450a300 300 0 1 1 0 600 300 300 0 0 1 0-600m0 100a200 200 0 1 0 0 400 200 200 0 0 0 0-400" glyph-name="award-fill" horiz-adv-x="1200" unicode=""/><glyph d="M850 437.75V94.15a25 25 0 0 0-37.85-21.45L600 200 387.85 72.7A25 25 0 0 0 350 94.2v343.5a400 400 0 1 0 500 0zM450 379.1V226.6l150 90 150-90v152.5A398.9 398.9 0 0 0 600 350a398.9 398.9 0 0 0-150 29.1M600 450a300 300 0 1 1 0 600 300 300 0 0 1 0-600" glyph-name="award-line" horiz-adv-x="1200" unicode=""/><glyph d="M296.35 575.15c103.15 22.15 89.1 145.45 86 172.4-5.05 41.5-53.9 114.1-120.25 108.35-83.5-7.5-95.65-128.05-95.65-128.05-11.3-55.75 27-174.85 129.9-152.7m109.5-214.4c-3-8.65-9.75-30.8-3.9-50.1 11.5-43.3 49.1-45.25 49.1-45.25h54v132H447.2c-26-7.7-38.5-27.95-41.35-36.65m81.9 421.1c57 0 103 65.6 103 146.65 0 81-46 146.5-103 146.5-56.85 0-103-65.5-103-146.5 0-81.05 46.15-146.65 103-146.65m245.4-9.65c76.1-9.9 125.05 71.35 134.8 132.95 9.95 61.5-39.2 132.9-93.1 145.2-54 12.4-121.45-74.15-127.6-130.5-7.35-69 9.85-137.9 85.9-147.65m0-172.4c-93.25 145.25-225.65 86.15-270 12.25-44.05-73.85-112.8-120.5-122.55-132.9-9.9-12.2-142.3-83.65-112.9-214.2 29.35-130.45 132.6-128 132.6-128s76.05-7.5 164.3 12.3c88.3 19.55 164.3-4.9 164.3-4.9s206.25-69 262.65 63.9c56.4 133-31.85 201.9-31.85 201.9S801.9 501.3 733.1 599.8zm-300.4-387.5c-57.9 11.55-80.95 51.05-83.85 57.8-2.85 6.85-19.3 38.6-10.6 92.65 25 80.95 96.35 86.75 96.35 86.75h71.4v87.75l60.75-1V212.3h-134zm229.5.95c-59.8 15.4-62.55 57.9-62.55 57.9v170.6l62.55 1v-153.3c3.85-16.4 24.15-19.35 24.15-19.35h63.55v171.65h66.6v-228.5zm372.7 455.5c0 29.5-24.5 118.2-115.25 118.2-90.95 0-103.1-83.75-103.1-142.95 0-56.5 4.75-135.35 117.7-132.85 113 2.5 100.65 128 100.65 157.6" glyph-name="baidu-fill" horiz-adv-x="1200" unicode=""/><glyph d="M378.2 236A484.5 484.5 0 0 1 503 246.85a440 440 0 0 0 149 6.55c27.35-3.35 49.25-8.25 64.4-12.85 53.9-13.75 130.5-11.15 150.25 20.5 14.55 23.4 12.65 39.35-1.3 59.95a94.3 94.3 0 0 1-10.6 13 1250 1250 0 0 0-37.15 30.9 1281 1281 0 0 0-87.65 83 807.6 807.6 0 0 0-78.85 94.65l-1.8 2.65c-37.1 56.95-77.9 53.35-100.1 15.85a480 480 0 0 0-47.75-66.55c-20.5-24.1-41.5-44.5-65.25-64.85-6.15-5.25-25.15-21-20.6-17.2-.2-.15-.85-.75 2.55 3.55-4.9-6-47.5-43.85-60-58.1-25.75-29.15-36.15-54-32.25-74 3.6-18.8 10.95-29.35 22.5-37.25a71.6 71.6 0 0 1 24-10.3zm354.9 363.8c68.8-98.5 186.6-189.65 186.6-189.65s103.15-87.4 31.85-201.9-262.65-63.9-262.65-63.9-76 24.5-164.3 4.9C436.35 129.5 360.3 137 360.3 137S250 149.25 227.7 264.95s103 202 112.9 214.2c9.75 12.35 75.6 53.65 122.6 132.9 47 79.3 179.15 127 269.9-12.25m276.95 71c0-22.9 9.5-119.65-77.65-121.6-87.1-1.9-90.8 58.9-90.8 102.5 0 45.65 9.4 110.25 79.5 110.25 70 0 88.95-68.45 88.95-91.2zm-271.5 138.85c-59 7.6-72.35 61.1-66.65 114.65 4.8 43.75 57.15 110.95 99.05 101.3 41.85-9.5 80-65 72.3-112.7-7.55-47.85-45.55-110.9-104.7-103.25M487.75 828c-43 0-78 49.65-78 111s34.95 111 78 111c43.15 0 78-49.65 78-111s-34.85-111-78-111M298.1 599.7c-84.75-18.25-116.3 79.85-107 125.75 0 0 10 99.35 78.8 105.5 54.65 4.75 94.9-55.05 99.05-89.25 2.55-22.2 14.15-123.75-70.85-142" glyph-name="baidu-line" horiz-adv-x="1200" unicode=""/><glyph d="m892.45 609.6-35.35 35.35-495-495H150V362.1l565.65 565.7L998.5 644.95a50 50 0 0 0 0-70.7L645 220.7l-70.75 70.7zm35.35 459.6 141.45-141.4a50 50 0 0 0 0-70.7l-70.75-70.75L786.4 998.5l70.7 70.7a50 50 0 0 0 70.7 0" glyph-name="ball-pen-fill" horiz-adv-x="1200" unicode=""/><glyph d="m892.45 609.6-35.35 35.35-495-495H150V362.1l565.65 565.7L998.5 644.95a50 50 0 0 0 0-70.7L645 220.7l-70.75 70.7zM786.4 715.65l-70.75 70.7L250 320.7v-70.75h70.7zm141.4 353.55 141.45-141.4a50 50 0 0 0 0-70.7l-70.75-70.75L786.4 998.5l70.7 70.7a50 50 0 0 0 70.7 0" glyph-name="ball-pen-line" horiz-adv-x="1200" unicode=""/><glyph d="M1100 650V200a50 50 0 0 0-50-50H150a50 50 0 0 0-50 50v450zm0 200H100v150a50 50 0 0 0 50 50h900a50 50 0 0 0 50-50z" glyph-name="bank-card-2-fill" horiz-adv-x="1200" unicode=""/><glyph d="M150 1050h900a50 50 0 0 0 50-50V200a50 50 0 0 0-50-50H150a50 50 0 0 0-50 50v800a50 50 0 0 0 50 50m850-450H200V250h800zm0 200v150H200V800z" glyph-name="bank-card-2-line" horiz-adv-x="1200" unicode=""/><glyph d="M1100 700V200a50 50 0 0 0-50-50H150a50 50 0 0 0-50 50v500zm0 100H100v200a50 50 0 0 0 50 50h900a50 50 0 0 0 50-50zM750 400V300h200v100z" glyph-name="bank-card-fill" horiz-adv-x="1200" unicode=""/><glyph d="M150 1050h900a50 50 0 0 0 50-50V200a50 50 0 0 0-50-50H150a50 50 0 0 0-50 50v800a50 50 0 0 0 50 50m850-400H200V250h800zm0 100v200H200V750zM700 450h200V350H700z" glyph-name="bank-card-line" horiz-adv-x="1200" unicode=""/><glyph d="M100 200h1000V100H100zm100 400h100V250H200zm250 0h100V250H450zm200 0h100V250H650zm250 0h100V250H900zM100 850l500 250 500-250V650H100zm500-50a50 50 0 1 1 0 100 50 50 0 0 1 0-100" glyph-name="bank-fill" horiz-adv-x="1200" unicode=""/><glyph d="M100 200h1000V100H100zm100 400h100V250H200zm250 0h100V250H450zm200 0h100V250H650zm250 0h100V250H900zM100 850l500 250 500-250V650H100zm100-61.8V750h800v38.2l-400 200zM600 800a50 50 0 1 0 0 100 50 50 0 0 0 0-100" glyph-name="bank-line" horiz-adv-x="1200" unicode=""/><glyph d="M100 550h300V150H100zm350 500h300V150H450zm350-250h300V150H800z" glyph-name="bar-chart-2-fill" horiz-adv-x="1200" unicode=""/><glyph d="M100 550h300V150H100zm700 250h300V150H800zm-350 250h300V150H450zM200 450V250h100v200zm350 500V250h100v700zm350-250V250h100v450z" glyph-name="bar-chart-2-line" horiz-adv-x="1200" unicode=""/><glyph d="M150 1050h900a50 50 0 0 0 50-50V200a50 50 0 0 0-50-50H150a50 50 0 0 0-50 50v800a50 50 0 0 0 50 50m200-500V350h100v200zm200 300V350h100v500zm200-150V350h100v350z" glyph-name="bar-chart-box-fill" horiz-adv-x="1200" unicode=""/><glyph d="M150 1050h900a50 50 0 0 0 50-50V200a50 50 0 0 0-50-50H150a50 50 0 0 0-50 50v800a50 50 0 0 0 50 50m50-100V250h800v700zm150-400h100V350H350zm200 300h100V350H550zm200-150h100V350H750z" glyph-name="bar-chart-box-line" horiz-adv-x="1200" unicode=""/><glyph d="M150 600h200V150H150zm700 200h200V150H850zm-350 300h200V150H500z" glyph-name="bar-chart-fill" horiz-adv-x="1200" unicode=""/><glyph d="M100 600h100V150H100zm150-100h100V150H250zm550 300h100V150H800zm150-100h100V150H950zm-500 400h100V150H450zm150-100h100V150H600z" glyph-name="bar-chart-grouped-fill" horiz-adv-x="1200" unicode=""/><glyph d="M100 600h100V150H100zm150-100h100V150H250zm550 300h100V150H800zm150-100h100V150H950zm-500 400h100V150H450zm150-100h100V150H600z" glyph-name="bar-chart-grouped-line" horiz-adv-x="1200" unicode=""/><glyph d="M600 1050V850H150v200zm200-700V150H150v200zm300 350V500H150v200z" glyph-name="bar-chart-horizontal-fill" horiz-adv-x="1200" unicode=""/><glyph d="M600 1050V950H150v100zm200-800V150H150v100zm300 400V550H150v100z" glyph-name="bar-chart-horizontal-line" horiz-adv-x="1200" unicode=""/><glyph d="M150 600h100V150H150zm800 200h100V150H950zm-400 300h100V150H550z" glyph-name="bar-chart-line" horiz-adv-x="1200" unicode=""/><glyph d="M150 1050h900a50 50 0 0 0 50-50V200a50 50 0 0 0-50-50H150a50 50 0 0 0-50 50v800a50 50 0 0 0 50 50m150-200V350h150v500zm200 0V350h100v500zm150 0V350h50v500zm100 0V350h150v500z" glyph-name="barcode-box-fill" horiz-adv-x="1200" unicode=""/><glyph d="M200 950V250h800v700zm-50 100h900a50 50 0 0 0 50-50V200a50 50 0 0 0-50-50H150a50 50 0 0 0-50 50v800a50 50 0 0 0 50 50m150-200h150V350H300zm200 0h100V350H500zm150 0h50V350h-50zm100 0h150V350H750z" glyph-name="barcode-box-line" horiz-adv-x="1200" unicode=""/><glyph d="M100 1000h100V200H100zm200 0h100V200H300zm150 0h150V200H450zm200 0h100V200H650zm150 0h100V200H800zm150 0h150V200H950z" glyph-name="barcode-fill" horiz-adv-x="1200" unicode=""/><glyph d="M100 1000h100V200H100zm200 0h50V200h-50zm100 0h100V200H400zm150 0h100V200H550zm150 0h100V200H700zm150 0h50V200h-50zm100 0h150V200H950z" glyph-name="barcode-line" horiz-adv-x="1200" unicode=""/><glyph d="M977.8 250h72.2V150H150v100h72.2l44.5 200h666.65zM866.65 750l44.5-200h-622.3l44.45 200h533.3zm-22.2 100H355.5l35.75 160.85A50 50 0 0 0 440.1 1050h319.8a50 50 0 0 0 48.8-39.15z" glyph-name="barricade-fill" horiz-adv-x="1200" unicode=""/><glyph d="M324.65 250h550.7L842 400H358zm653.15 0h72.2V150H150v100h72.2l169.1 760.85a50 50 0 0 0 48.8 39.15h319.8a50 50 0 0 0 48.8-39.15zM380.2 500h439.6l-44.5 200H424.7l-44.45-200zm66.7 300h306.2l-33.3 150H480.2z" glyph-name="barricade-line" horiz-adv-x="1200" unicode=""/><glyph d="m600 550 300-450H300zm-53 122a75 75 0 1 0 106 106 75 75 0 0 0-106-106m-282.95 388.85 70.75-70.75a375 375 0 0 1 0-530.3l-70.75-70.75a475 475 0 0 0 0 671.8m671.8 0a475 475 0 0 0 0-671.8L865.1 459.8a375 375 0 0 1 0 530.3zM405.5 919.45l70.7-70.7a175 175 0 0 1 0-247.5l-70.7-70.7a275 275 0 0 0 0 388.9m388.9 0a275 275 0 0 0 0-388.9l-70.7 70.7a175 175 0 0 1 0 247.5z" glyph-name="base-station-fill" horiz-adv-x="1200" unicode=""/><glyph d="m600 550 300-450H300zm0-180L487 200h226zm-53 302a75 75 0 1 0 106 106 75 75 0 0 0-106-106m-282.95 388.85 70.75-70.75a375 375 0 0 1 0-530.3l-70.75-70.75a475 475 0 0 0 0 671.8m671.8 0a475 475 0 0 0 0-671.8L865.1 459.8a375 375 0 0 1 0 530.3zM405.5 919.45l70.7-70.7a175 175 0 0 1 0-247.5l-70.7-70.7a275 275 0 0 0 0 388.9m388.9 0a275 275 0 0 0 0-388.9l-70.7 70.7a175 175 0 0 1 0 247.5z" glyph-name="base-station-line" horiz-adv-x="1200" unicode=""/><glyph d="m618.3 531.7 88.75-51.25a499 499 0 0 1-15.55-372A495.6 495.6 0 0 0 600 100a498.2 498.2 0 0 0-205.5 44zm175.85-101.6 211.7-122.2A501.65 501.65 0 0 0 787.7 136.4a399.4 399.4 0 0 0 .4 278.5zM443 632.9l88.75-51.2-223.8-387.5a501.3 501.3 0 0 0-179.5 239.25A498.9 498.9 0 0 1 432.7 619.1zm652.3 36.3c3.15-22.65 4.75-45.75 4.75-69.2a498.2 498.2 0 0 0-44-205.5l-211.8 122.25a399.25 399.25 0 0 0 243.3 151.05zM144.05 805.45 355.8 683.2a399.5 399.5 0 0 0-251.05-152.5A507 507 0 0 0 100 600c0 73.25 15.75 142.8 44 205.5zm748.05 200.4a501.3 501.3 0 0 0 179.5-239.25 499.25 499.25 0 0 1-304.3-185.75l-10.25-13.8-88.75 51.25 223.8 387.5zM600 1100c73.25 0 142.8-15.75 205.5-44L581.7 668.3l-88.75 51.2a499 499 0 0 1 15.55 372.1 496 496 0 0 0 91.5 8.4m-187.65-36.5a399.6 399.6 0 0 0-.5-278.5l-6-15.15-211.7 122.25a501.8 501.8 0 0 0 208.2 167.3l10 4.15z" glyph-name="basketball-fill" horiz-adv-x="1200" unicode=""/><glyph d="M600 1100c276.15 0 500-223.85 500-500S876.15 100 600 100 100 323.85 100 600s223.85 500 500 500m18.3-568.3L444.85 231.2a402.65 402.65 0 0 1 222.95-25.5A496.85 496.85 0 0 0 707 480.4zm175.9-101.55a397.8 397.8 0 0 1-29.35-194.7 401.1 401.1 0 0 1 153.85 122.8zM442.95 632.9A497.5 497.5 0 0 0 224.7 461.5a400.5 400.5 0 0 1 133.55-180.2L531.7 581.7zm555.15 6.5-12.9-6a397.35 397.35 0 0 1-141-116.65l124.6-71.95a398.75 398.75 0 0 1 29.3 194.65zM200 600c0-13.3.65-26.5 1.9-39.45a397.5 397.5 0 0 1 153.9 122.7l-124.6 71.9A398.75 398.75 0 0 1 200 600m641.75 318.7L668.3 618.3l88.75-51.25a497.5 497.5 0 0 0 218.3 171.5 400.75 400.75 0 0 1-120.95 170.1zM600 1000c-23.15 0-45.8-2-67.85-5.75a496.4 496.4 0 0 0-39.2-274.7l88.75-51.25 173.45 300.5A398.75 398.75 0 0 1 600 1000m-164.85-35.5-9.55-4.4a401.65 401.65 0 0 1-144.3-118.35l124.5-71.9a397.8 397.8 0 0 1 29.35 194.65" glyph-name="basketball-line" horiz-adv-x="1200" unicode=""/><glyph d="M450 1000v50a50 50 0 0 0 50 50h200a50 50 0 0 0 50-50v-50h150a50 50 0 0 0 50-50V150a50 50 0 0 0-50-50H300a50 50 0 0 0-50 50v800a50 50 0 0 0 50 50zm200-400v250L400 500h150V250l250 350z" glyph-name="battery-2-charge-fill" horiz-adv-x="1200" unicode=""/><glyph d="M650 600h150L550 250v250H400l250 350zM550 900H350V200h500v700H650v100H550zm-100 100v50a50 50 0 0 0 50 50h200a50 50 0 0 0 50-50v-50h150a50 50 0 0 0 50-50V150a50 50 0 0 0-50-50H300a50 50 0 0 0-50 50v800a50 50 0 0 0 50 50z" glyph-name="battery-2-charge-line" horiz-adv-x="1200" unicode=""/><glyph d="M450 1000v50a50 50 0 0 0 50 50h200a50 50 0 0 0 50-50v-50h150a50 50 0 0 0 50-50V150a50 50 0 0 0-50-50H300a50 50 0 0 0-50 50v800a50 50 0 0 0 50 50z" glyph-name="battery-2-fill" horiz-adv-x="1200" unicode=""/><glyph d="M550 900H350V200h500v700H650v100H550zm-100 100v50a50 50 0 0 0 50 50h200a50 50 0 0 0 50-50v-50h150a50 50 0 0 0 50-50V150a50 50 0 0 0-50-50H300a50 50 0 0 0-50 50v800a50 50 0 0 0 50 50z" glyph-name="battery-2-line" horiz-adv-x="1200" unicode=""/><glyph d="M600 650v300L350 550h150V250l250 400zM150 950h800a50 50 0 0 0 50-50V300a50 50 0 0 0-50-50H150a50 50 0 0 0-50 50v600a50 50 0 0 0 50 50m900-200h100V450h-100z" glyph-name="battery-charge-fill" horiz-adv-x="1200" unicode=""/><glyph d="M400 250H150a50 50 0 0 0-50 50v600a50 50 0 0 0 50 50h331.25L422.9 850H200V350h200zm218.75 0 58.35 100H900v500H700v100h250a50 50 0 0 0 50-50V300a50 50 0 0 0-50-50zM1050 750h100V450h-100zM600 650h150L500 250v300H350l250 400z" glyph-name="battery-charge-line" horiz-adv-x="1200" unicode=""/><glyph d="M150 950h800a50 50 0 0 0 50-50V300a50 50 0 0 0-50-50H150a50 50 0 0 0-50 50v600a50 50 0 0 0 50 50m900-200h100V450h-100z" glyph-name="battery-fill" horiz-adv-x="1200" unicode=""/><glyph d="M200 850V350h700v500zm-50 100h800a50 50 0 0 0 50-50V300a50 50 0 0 0-50-50H150a50 50 0 0 0-50 50v600a50 50 0 0 0 50 50m900-200h100V450h-100z" glyph-name="battery-line" horiz-adv-x="1200" unicode=""/><glyph d="M150 950h800a50 50 0 0 0 50-50V300a50 50 0 0 0-50-50H150a50 50 0 0 0-50 50v600a50 50 0 0 0 50 50m100-150V400h200v400zm800-50h100V450h-100z" glyph-name="battery-low-fill" horiz-adv-x="1200" unicode=""/><glyph d="M200 850V350h700v500zm-50 100h800a50 50 0 0 0 50-50V300a50 50 0 0 0-50-50H150a50 50 0 0 0-50 50v600a50 50 0 0 0 50 50m100-150h200V400H250zm800-50h100V450h-100z" glyph-name="battery-low-line" horiz-adv-x="1200" unicode=""/><glyph d="M700 1100a50 50 0 0 0 50-50v-50h150a50 50 0 0 0 50-50V150a50 50 0 0 0-50-50H300a50 50 0 0 0-50 50v800a50 50 0 0 0 50 50h150v50a50 50 0 0 0 50 50zm-50-350H550V600H400V500h150V350h100v150h150v100H650z" glyph-name="battery-saver-fill" horiz-adv-x="1200" unicode=""/><glyph d="M700 1100a50 50 0 0 0 50-50v-50h150a50 50 0 0 0 50-50V150a50 50 0 0 0-50-50H300a50 50 0 0 0-50 50v800a50 50 0 0 0 50 50h150v50a50 50 0 0 0 50 50zm-50-100H550V900H350V200h500v700H650zm0-250V600h150V500H650V350H550v150H400v100h150v150z" glyph-name="battery-saver-line" horiz-adv-x="1200" unicode=""/><glyph d="M700 1100a50 50 0 0 0 50-50v-50h150a50 50 0 0 0 50-50V640L750 800V650h-50c-107.1 0-200-89.5-200-200V300h100v150c0 52.5 47.5 100 100 100h50V400l200 160V150a50 50 0 0 0-50-50H300a50 50 0 0 0-50 50v800a50 50 0 0 0 50 50h150v50a50 50 0 0 0 50 50z" glyph-name="battery-share-fill" horiz-adv-x="1200" unicode=""/><glyph d="M700 1100a50 50 0 0 0 50-50v-50h150a50 50 0 0 0 50-50V850H850v50H650v100H550V900H350V200h500v150h100V150a50 50 0 0 0-50-50H300a50 50 0 0 0-50 50v800a50 50 0 0 0 50 50h150v50a50 50 0 0 0 50 50zm50-300 250-200-250-200v150h-50c-52.7 0-100-47.5-100-100V300H500v150a200 200 0 0 0 200 200h50z" glyph-name="battery-share-line" horiz-adv-x="1200" unicode=""/><glyph d="M875 1100a225 225 0 0 0 147.55-394.85C1040.3 656.8 1050 604.5 1050 550a450 450 0 1 0-872.5 155.15 225 225 0 1 0 339.55 287.2 452.5 452.5 0 0 0 166 0A224.7 224.7 0 0 0 875 1100M500 550H400a200 200 0 0 1 399.75-10l.25 10H700a100 100 0 0 0-199.75-7.5z" glyph-name="bear-smile-fill" horiz-adv-x="1200" unicode=""/><glyph d="M875 1100a225 225 0 0 0 147.55-394.85C1040.3 656.8 1050 604.5 1050 550a450 450 0 1 0-872.5 155.15 225 225 0 1 0 339.55 287.2 452.5 452.5 0 0 0 166 0A224.7 224.7 0 0 0 875 1100m0-100c-41.15 0-78.75-20-101.9-52.6l-4.75-7.2-35.9-58.8-67.75 12.65a352.5 352.5 0 0 1-113.35 2.6l-15.8-2.6-67.8-12.75-36 58.8A125 125 0 1 1 236.5 786.75l6.55-6.15 52.05-45.2-23.75-64.75A350 350 0 1 1 950 550c0 35.8-5.35 70.8-15.7 104.15l-5.6 16.5-23.75 64.75 52 45.2A125 125 0 0 1 875 1000M500 550a100 100 0 1 1 200 0h100a200 200 0 1 0-400 0z" glyph-name="bear-smile-line" horiz-adv-x="1200" unicode=""/><glyph d="M372.15 932.5c31.95 0 61.5-2.5 88.5-9.9a191.5 191.5 0 0 0 68.85-27.2c19.7-12.35 34.45-29.7 44.25-51.95 9.85-22.25 14.75-49.5 14.75-79.15 0-34.65-7.35-64.3-24.55-86.55-14.75-22.3-39.35-42.05-68.85-56.9 41.8-12.4 73.75-34.65 93.4-64.3 19.7-29.7 32-66.8 32-108.85 0-34.65-7.4-64.3-19.7-89.05s-31.95-47-54.1-61.85a253.9 253.9 0 0 0-78.65-34.6c-29.5-7.45-59-12.4-88.5-12.4H50v682.7zm-19.7-277c27.05 0 49.2 7.4 66.4 19.75s24.6 34.65 24.6 61.85c0 14.85-2.5 29.7-7.4 39.55-4.9 9.9-12.3 17.35-22.1 24.75-9.85 4.95-19.7 9.9-32 12.35-12.3 2.5-24.55 2.5-39.35 2.5H200v-160.8h152.5zm7.4-291.9c14.75 0 29.5 2.5 41.8 4.95a86 86 0 0 1 34.4 14.85 88 88 0 0 1 24.6 27.2c4.9 12.35 9.85 27.2 9.85 44.5 0 34.65-9.85 59.4-29.5 76.7-19.7 14.85-46.75 22.25-78.7 22.25H200v-190.5h159.85zm474.6 2.5q29.475-29.7 88.5-29.7c27.05 0 51.65 7.4 71.3 19.75q29.55 22.275 36.9 44.55h120.5c-19.7-59.35-49.2-101.4-88.5-128.6-39.4-24.75-86.1-39.6-142.65-39.6a287.7 287.7 0 0 0-105.75 19.8 196.5 196.5 0 0 0-78.7 54.4 196.5 196.5 0 0 0-49.15 81.65c-12.3 32.15-17.25 66.75-17.25 106.35 0 37.1 4.95 71.7 17.25 103.9a267 267 0 0 0 51.6 84.1c22.15 22.25 49.2 42 78.7 54.4a274.5 274.5 0 0 0 103.3 19.8c41.8 0 78.7-7.45 110.65-24.75 32-17.3 56.55-37.1 76.25-66.8a300.5 300.5 0 0 0 44.25-94c4.9-34.6 7.35-69.25 4.9-108.8H800c0-39.6 14.75-76.7 34.45-96.5zm154.9 259.7c-17.2 17.3-44.25 27.2-76.25 27.2-22.1 0-39.35-4.95-54.1-12.35-14.75-7.45-24.55-17.35-34.4-27.25a66.1 66.1 0 0 1-17.2-34.6c-2.5-12.4-4.95-22.25-4.95-32.15h221.3c-4.9 37.1-17.2 61.8-34.4 79.15m-216.4 259.7h275.4v-66.8H773v66.8z" glyph-name="behance-fill" horiz-adv-x="1200" unicode=""/><glyph d="M375 650a100 100 0 1 1 0 200H150V650zm50-100H150V350h275a100 100 0 1 1 0 200m103.15 71.4A200 200 0 0 0 425 250H50v700h325a200 200 0 0 0 153.15-328.6M775 900h275v-75H775zm375-425H775v-12.5a137.5 137.5 0 0 1 260-62.5h106.7A237.6 237.6 0 0 0 675 462.5v75a237.5 237.5 0 1 0 475 0zm-105.2 100a137.55 137.55 0 0 1-264.6 0z" glyph-name="behance-line" horiz-adv-x="1200" unicode=""/><glyph d="m670.7 670.7 24-24.3 23.25-24.25 22.95-24.6c172.9-188.2 273.6-360.9 230.35-404.15-20-20-67.8-9.2-132 25.35a450.3 450.3 0 0 0-520.15 29.6l149 149a100 100 0 1 1-72.5 78.45l1.75-7.75-148.95-149a450.35 450.35 0 0 0-29.6 520.25c-34.6 64.15-45.4 111.9-25.4 131.95 48.85 48.8 262.5-85.75 477.3-300.5zm318.2 318.2a100 100 0 0 0-8.2-148.8 450.75 450.75 0 0 0 30.35-423.5c-59.45 97.7-153.5 208.7-269.65 324.8L714.55 768c-106.4 103.95-207.8 188.2-297.9 243a450.75 450.75 0 0 0 423.55-30.35 100 100 0 0 0 148.7 8.25" glyph-name="bell-fill" horiz-adv-x="1200" unicode=""/><glyph d="M706.05 706.05c214.8-214.75 341.45-436.4 282.85-495-23.75-23.7-74.3-17-140.35 13.65a450.4 450.4 0 0 0-529.5 23.7l-1.9-2-70.7 70.75 1.9 2a450.3 450.3 0 0 0-23.6 529.35c-30.7 66.1-37.4 116.65-13.65 140.4 56.4 56.4 263.85-58.85 470.85-259.1zm-70.7-70.7C541.15 729.55 443.5 807.9 361.8 856.5l-9.3-9a350.1 350.1 0 0 1-32.85-457.1l92.3 92.3a100 100 0 1 0 70.8-70.75l-92.4-92.3A350.1 350.1 0 0 1 847.5 352.5l8.95 9.4-2.65 4.45c-48.8 80.75-126 176.5-218.45 269M988.9 988.9a100 100 0 0 0-8.2-148.8 450.75 450.75 0 0 0 33.1-417.25 1058 1058 0 0 1-69.3 115.3 349.5 349.5 0 0 1-97 309.35 349.6 349.6 0 0 1-309.35 97 1055 1055 0 0 1-115.3 69.3 450.8 450.8 0 0 0 417.35-33.15 100 100 0 0 0 148.7 8.25" glyph-name="bell-line" horiz-adv-x="1200" unicode=""/><glyph d="M275 600h-75v250H100v100h300V850H300V710.25L790.65 841.7l-29 108.3H600v100h198.9a50 50 0 0 0 49.4-37.05l77.65-289.8-96.6-25.85-12.8 47.8zm-25-450a200 200 0 1 0 0 400 200 200 0 0 0 0-400m0 150a50 50 0 1 1 0 100 50 50 0 0 1 0-100m650-150a250 250 0 1 0 0 500 250 250 0 0 0 0-500m0 200a50 50 0 1 1 0 100 50 50 0 0 1 0-100" glyph-name="bike-fill" horiz-adv-x="1200" unicode=""/><glyph d="M275 600h-75v250H100v100h300V850H300V710.25L790.65 841.7l-29 108.3H600v100h198.9a50 50 0 0 0 49.4-37.05l77.65-289.8-96.6-25.85-12.8 47.8zm-25-350a100 100 0 1 1 0 200 100 100 0 0 1 0-200m0-100a200 200 0 1 0 0 400 200 200 0 0 0 0-400m650 100a150 150 0 1 1 0 300 150 150 0 0 1 0-300m0-100a250 250 0 1 0 0 500 250 250 0 0 0 0-500" glyph-name="bike-line" horiz-adv-x="1200" unicode=""/><glyph d="M911.15 1045.7a62.5 62.5 0 0 0 0-88.4L854 900.2h58.5A187.5 187.5 0 0 0 1100 712.65v-375a187.5 187.5 0 0 0-187.5-187.5h-625A187.5 187.5 0 0 0 100 337.65v375a187.5 187.5 0 0 0 187.5 187.5h58.3l-57.05 57.1a62.5 62.5 0 1 0 88.35 88.4l132.6-132.6c3.95-3.95 7.25-8.25 9.9-12.85h160.65c2.65 4.6 6 9 9.95 12.9l132.55 132.6a62.5 62.5 0 0 0 88.4 0m1.35-271h-625a62.5 62.5 0 0 1-62.35-57.85l-.15-4.7v-375c0-32.95 25.5-59.95 57.85-62.3l4.65-.2h625a62.5 62.5 0 0 1 62.35 57.85l.15 4.65v375c0 34.5-28 62.5-62.5 62.5zm-500-125c34.5 0 62.5-28 62.5-62.5v-62.5a62.5 62.5 0 1 0-125 0v62.5c0 34.5 28 62.5 62.5 62.5m375 0c34.5 0 62.5-28 62.5-62.5v-62.5a62.5 62.5 0 1 0-125 0v62.5c0 34.5 28 62.5 62.5 62.5" glyph-name="bilibili-fill" horiz-adv-x="1200" unicode=""/><glyph d="M358.6 1062.15 520.7 900h158.55l162.15 162.1a50 50 0 0 0 70.75-70.75L820.7 900H925a175 175 0 0 0 175-175V325a175 175 0 0 0-175-175H275a175 175 0 0 0-175 175v400a175 175 0 0 0 175 175h104.25l-91.4 91.45a50 50 0 0 0 70.75 70.75zM925 800H275a75 75 0 0 1-74.65-67.8L200 725V325a75 75 0 0 1 67.8-74.65l7.2-.35h650a75 75 0 0 1 74.65 67.8l.35 7.2v400a75 75 0 0 1-75 75M400 650a50 50 0 0 0 50-50V500a50 50 0 0 0-100 0v100a50 50 0 0 0 50 50m400 0a50 50 0 0 0 50-50V500a50 50 0 0 0-100 0v100a50 50 0 0 0 50 50" glyph-name="bilibili-line" horiz-adv-x="1200" unicode=""/><glyph d="M1000 100H200a50 50 0 0 0-50 50v900a50 50 0 0 0 50 50h800a50 50 0 0 0 50-50V150a50 50 0 0 0-50-50M400 750V650h400v100zm0-200V450h400v100z" glyph-name="bill-fill" horiz-adv-x="1200" unicode=""/><glyph d="M1000 100H200a50 50 0 0 0-50 50v900a50 50 0 0 0 50 50h800a50 50 0 0 0 50-50V150a50 50 0 0 0-50-50m-50 100v800H250V200zM400 750h400V650H400zm0-200h400V450H400z" glyph-name="bill-line" horiz-adv-x="1200" unicode=""/><glyph d="M600 1100c276.15 0 500-223.85 500-500S876.15 100 600 100 100 323.85 100 600s223.85 500 500 500m0-200a300 300 0 1 1 0-600 300 300 0 0 1 0 600m0-87.5a125 125 0 0 0 94-207.4c28.25-22.8 46-55.85 46-92.6 0-69-62.7-125-140-125s-140 56-140 125c0 36.75 17.75 69.8 46 92.65a125 125 0 0 0 94 207.35m0-250c-37.65 0-65-24.4-65-50s27.35-50 65-50 65 24.4 65 50-27.35 50-65 50m0 175a50 50 0 1 1 0-100 50 50 0 0 1 0 100" glyph-name="billiards-fill" horiz-adv-x="1200" unicode=""/><glyph d="M600 1100c276.15 0 500-223.85 500-500S876.15 100 600 100 100 323.85 100 600s223.85 500 500 500m0-100a400 400 0 1 1 0-800 400 400 0 0 1 0 800m0-100a300 300 0 1 0 0-600 300 300 0 0 0 0 600m0-87.5a125 125 0 0 1-94-207.35c-28.25-22.85-46-55.9-46-92.65 0-69 62.7-125 140-125s140 56 140 125c0 36.75-17.75 69.8-46 92.6a125 125 0 0 1-94 207.4m0-250c37.65 0 65-24.4 65-50s-27.35-50-65-50-65 24.4-65 50 27.35 50 65 50m0 175a50 50 0 1 0 0-100 50 50 0 0 0 0 100" glyph-name="billiards-line" horiz-adv-x="1200" unicode=""/><glyph d="M600 100c-276.15 0-500 223.85-500 500s223.85 500 500 500 500-223.85 500-500-223.85-500-500-500m-50 300V300h100v100h50a125 125 0 0 1 100 200 125 125 0 0 1-100 200h-50v100H550V800H400V400zm-50 150h200a25 25 0 1 0 0-50H500zm0 150h200a25 25 0 1 0 0-50H500z" glyph-name="bit-coin-fill" horiz-adv-x="1200" unicode=""/><glyph d="M600 100c-276.15 0-500 223.85-500 500s223.85 500 500 500 500-223.85 500-500-223.85-500-500-500m0 100a400 400 0 1 1 0 800 400 400 0 0 1 0-800m-50 200H400v400h150v100h100V800h50a125 125 0 0 0 100-200 125 125 0 0 0-100-200h-50V300H550zm-50 150v-50h200a25 25 0 1 1 0 50zm0 150v-50h200a25 25 0 1 1 0 50z" glyph-name="bit-coin-line" horiz-adv-x="1200" unicode=""/><glyph d="M925 750c50-53 75-119.7 75-200 0-173.3-185-213.8-275-450-33.35 28.75-50 70.4-50 125 0 174.1 250 264.5 250 525M725 950c60-61.9 90-128.6 90-200 0-247.55-302.25-284.6-240-650-83.35 58-125 141.35-125 250 0 166.25 275 300 275 600m-225 200c66.65-83.35 100-158.35 100-225 0-312.5-425-411.1-200-825-130.8 29-225 150-225 300 0 325 325 375 325 750" glyph-name="blaze-fill" horiz-adv-x="1200" unicode=""/><glyph d="M950 750c33.35-53 50-119.7 50-200 0-150-175-200-250-450-33.35 28.75-50 70.4-50 125 0 174.1 250 264.5 250 525M725 950a415.5 415.5 0 0 0 50-200c0-250-300-300-200-650-83.35 58-125 141.35-125 250 0 166.25 275 300 275 600m-225 200c33.35-66.65 50-141.65 50-225 0-300-450-375-150-825-125 25-225 150-225 300 0 325 325 375 325 750" glyph-name="blaze-line" horiz-adv-x="1200" unicode=""/><glyph d="M717.05 598.5 934.2 381.35 651.4 98.55h-100v334.3l-218.2-218.2-70.75 70.7 288.95 288.9v48.5l-288.95 289 70.75 70.7 218.2-218.2v334.3h100L934.2 815.7 717.05 598.55zm-65.65-75.7V239.95l141.4 141.4zm0 151.5 141.4 141.4-141.4 141.4V674.25zM975 525a75 75 0 1 0 0 150 75 75 0 0 0 0-150m-650 0a75 75 0 1 0 0 150 75 75 0 0 0 0-150" glyph-name="bluetooth-connect-fill" horiz-adv-x="1200" unicode=""/><glyph d="M717.05 598.5 934.2 381.35 651.4 98.55h-100v334.3l-218.2-218.2-70.75 70.7 288.95 288.9v48.5l-288.95 289 70.75 70.7 218.2-218.2v334.3h100L934.2 815.7 717.05 598.55zm-65.65-75.7V239.95l141.4 141.4zm0 151.5 141.4 141.4-141.4 141.4V674.25zM975 525a75 75 0 1 0 0 150 75 75 0 0 0 0-150m-650 0a75 75 0 1 0 0 150 75 75 0 0 0 0-150" glyph-name="bluetooth-connect-line" horiz-adv-x="1200" unicode=""/><glyph d="M717.05 598.5 934.2 381.35 651.4 98.55h-100v334.3l-218.2-218.2-70.75 70.7 288.95 288.9v48.5l-288.95 289 70.75 70.7 218.2-218.2v334.3h100L934.2 815.7 717.05 598.55zm-65.65-75.7V239.95l141.4 141.4zm0 151.5 141.4 141.4-141.4 141.4V674.25z" glyph-name="bluetooth-fill" horiz-adv-x="1200" unicode=""/><glyph d="M717.05 598.5 934.2 381.35 651.4 98.55h-100v334.3l-218.2-218.2-70.75 70.7 288.95 288.9v48.5l-288.95 289 70.75 70.7 218.2-218.2v334.3h100L934.2 815.7 717.05 598.55zm-65.65-75.7V239.95l141.4 141.4zm0 151.5 141.4 141.4-141.4 141.4V674.25z" glyph-name="bluetooth-line" horiz-adv-x="1200" unicode=""/><glyph d="M271.6 857.7 69.65 1059.6l70.75 70.75 989.95-990-70.75-70.7-151.9 152A450 450 0 0 0 271.6 857.6zm140.55 140.8L600 1186.4l318.2-318.2A450.1 450.1 0 0 0 1020.7 390L412.2 998.5z" glyph-name="blur-off-fill" horiz-adv-x="1200" unicode=""/><glyph d="M907.7 221.6a450 450 0 0 0-636.1 636.1L69.65 1059.6l70.75 70.75 989.95-990-70.75-70.7-151.9 152zM342.35 786.9A350 350 0 0 1 836.9 292.4L342.4 786.9zM1020.7 390l-79.95 79.95a349.75 349.75 0 0 1-93.25 327.5L600 1045 482.85 927.85l-70.7 70.65L600 1186.4l318.2-318.2A450.1 450.1 0 0 0 1020.7 390" glyph-name="blur-off-line" horiz-adv-x="1200" unicode=""/><glyph d="M200 400V200h200V100H100v300zm900 0V100H800v100h200v200zM375 850a225 225 0 0 1 450 0h100a325 325 0 0 0-174.95-288.35L750 250H450v311.6A325 325 0 0 0 275 850zm225 100a125 125 0 1 0 0-250 125 125 0 0 0 0 250m-200 150v-100l-200 .05V800H100v300zm700 0V800h-100v200H800v100z" glyph-name="body-scan-fill" horiz-adv-x="1200" unicode=""/><glyph d="M200 400V200h200V100H100v300zm900 0V100H800v100h200v200zM375 850a225.1 225.1 0 0 1 175-219.45V350h100l.05 280.6A225.1 225.1 0 0 1 825 850h100a325 325 0 0 0-174.95-288.35L750 250H450v311.6A325 325 0 0 0 275 850zm225 100a125 125 0 1 0 0-250 125 125 0 0 0 0 250m-200 150v-100l-200 .05V800H100v300zm700 0V800h-100v200H800v100z" glyph-name="body-scan-line" horiz-adv-x="1200" unicode=""/><glyph d="M400 650h225a125 125 0 1 1 0 250H400zm500-225a225 225 0 0 0-225-225H300v800h325a225 225 0 0 0 162.8-380.3A224.9 224.9 0 0 0 900 425M400 550V300h275a125 125 0 1 1 0 250z" glyph-name="bold" horiz-adv-x="1200" unicode=""/><glyph d="M1050 300H300a50 50 0 0 1 0-100h750V100H300a150 150 0 0 0-150 150v750a100 100 0 0 0 100 100h800zM800 750v100H400V750z" glyph-name="book-2-fill" horiz-adv-x="1200" unicode=""/><glyph d="M1050 300H300a50 50 0 0 1 0-100h750V100H300a150 150 0 0 0-150 150v750a100 100 0 0 0 100 100h800zm-800 97.5c8.1 1.65 16.45 2.5 25 2.5h675v600H250zM800 750H400v100h400z" glyph-name="book-2-line" horiz-adv-x="1200" unicode=""/><glyph d="M1050 1000H350a100 100 0 1 1 0-200h700V150a50 50 0 0 0-50-50H350a200 200 0 0 0-200 200v600a200 200 0 0 0 200 200h650a50 50 0 0 0 50-50zm-50-150H350a50 50 0 1 0 0 100h650z" glyph-name="book-3-fill" horiz-adv-x="1200" unicode=""/><glyph d="M1050 1000H350a100 100 0 1 1 0-200h700V150a50 50 0 0 0-50-50H350a200 200 0 0 0-200 200v600a200 200 0 0 0 200 200h650a50 50 0 0 0 50-50zM250 300a100 100 0 0 1 100-100h600v500H350a199.1 199.1 0 0 0-100 26.75zm750 550H350a50 50 0 1 0 0 100h650z" glyph-name="book-3-line" horiz-adv-x="1200" unicode=""/><glyph d="M1000 100H325a175 175 0 0 0-175 175v675a150 150 0 0 0 150 150h700a50 50 0 0 0 50-50V150a50 50 0 0 0-50-50m-50 100v150H325a75 75 0 0 1 0-150z" glyph-name="book-fill" horiz-adv-x="1200" unicode=""/><glyph d="M150 275v675a150 150 0 0 0 150 150h700a50 50 0 0 0 50-50V150a50 50 0 0 0-50-50H325a175 175 0 0 0-175 175m800-75v150H325a75 75 0 0 1 0-150zM250 433.15A174.3 174.3 0 0 0 325 450h625v550H300a50 50 0 0 1-50-50z" glyph-name="book-line" horiz-adv-x="1200" unicode=""/><glyph d="M1000 100H325a175 175 0 0 0-175 175v675a150 150 0 0 0 150 150h700a50 50 0 0 0 50-50V150a50 50 0 0 0-50-50m-50 100v150H325a75 75 0 0 1 0-150zm-450 800V600l175 100 175-100v400z" glyph-name="book-mark-fill" horiz-adv-x="1200" unicode=""/><glyph d="M150 275v675a150 150 0 0 0 150 150h700a50 50 0 0 0 50-50V150a50 50 0 0 0-50-50H325a175 175 0 0 0-175 175m800-75v150H325a75 75 0 0 1 0-150zm-450 800H300a50 50 0 0 1-50-50V433.15A174.3 174.3 0 0 0 325 450h625v550H850V600L675 700 500 600z" glyph-name="book-mark-line" horiz-adv-x="1200" unicode=""/><glyph d="M1050 150H650v750a150 150 0 0 0 150 150h250a50 50 0 0 0 50-50V200a50 50 0 0 0-50-50m-500 0H150a50 50 0 0 0-50 50v800a50 50 0 0 0 50 50h250a150 150 0 0 0 150-150zm0 0h100V50H550z" glyph-name="book-open-fill" horiz-adv-x="1200" unicode=""/><glyph d="M650 150V50H550v100H150a50 50 0 0 0-50 50v800a50 50 0 0 0 50 50h300a199.5 199.5 0 0 0 150-67.7 199.5 199.5 0 0 0 150 67.7h300a50 50 0 0 0 50-50V200a50 50 0 0 0-50-50zm350 100v700H750a100 100 0 0 1-100-100V250zm-450 0v600a100 100 0 0 1-100 100H200V250z" glyph-name="book-open-line" horiz-adv-x="1200" unicode=""/><glyph d="M100 1000.35a50 50 0 0 0 49.6 49.65h900.8c27.4 0 49.6-22.25 49.6-49.65v-800.7a50 50 0 0 0-49.6-49.65H149.6a49.65 49.65 0 0 0-49.6 49.65zM600 950V250h400v700zm50-100h300V750H650zm0-150h300V600H650z" glyph-name="book-read-fill" horiz-adv-x="1200" unicode=""/><glyph d="M100 1000.35a50 50 0 0 0 49.6 49.65h900.8c27.4 0 49.6-22.25 49.6-49.65v-800.7a50 50 0 0 0-49.6-49.65H149.6a49.65 49.65 0 0 0-49.6 49.65zM550 950H200V250h350zm100 0V250h350v700zm50-100h250V750H700zm0-150h250V600H700z" glyph-name="book-read-line" horiz-adv-x="1200" unicode=""/><glyph d="M400 1100V100H200v200H100v100h100v150H100v100h100v150H100v100h100v200zm600.25 0c55.1 0 99.75-44.9 99.75-99.5v-801c0-54.95-44.65-99.5-99.75-99.5H500v1000z" glyph-name="booklet-fill" horiz-adv-x="1200" unicode=""/><glyph d="M1000.25 1100c55.1 0 99.75-44.9 99.75-99.5v-801c0-54.95-44.65-99.5-99.75-99.5H200v200H100v100h100v150H100v100h100v150H100v100h100v200zM400 1000H300V200h100zm600 0H500V200h500z" glyph-name="booklet-line" horiz-adv-x="1200" unicode=""/><glyph d="M250 1100h700a50 50 0 0 0 50-50V92.85a25 25 0 0 0-38.3-21.2L600 298.5 238.3 71.7A25 25 0 0 0 200 92.85V1050a50 50 0 0 0 50 50m150-350V650h400v100z" glyph-name="bookmark-2-fill" horiz-adv-x="1200" unicode=""/><glyph d="M250 1100h700a50 50 0 0 0 50-50V92.85a25 25 0 0 0-38.3-21.2L600 298.5 238.3 71.7A25 25 0 0 0 200 92.85V1050a50 50 0 0 0 50 50m650-100H300V228.4l300 188.05L900 228.4zM400 750h400V650H400z" glyph-name="bookmark-2-line" horiz-adv-x="1200" unicode=""/><glyph d="M200 1100h800a50 50 0 0 0 50-50V86.2a25 25 0 0 0-35.2-22.85L600 248.5 185.2 63.4A25 25 0 0 0 150 86.2V1050a50 50 0 0 0 50 50m400-575 146.95-77.25-28.05 163.6 118.85 115.9-164.3 23.9L600 900l-73.5-148.85-164.25-23.9 118.85-115.9-28-163.6z" glyph-name="bookmark-3-fill" horiz-adv-x="1200" unicode=""/><glyph d="M200 1100h800a50 50 0 0 0 50-50V86.2a25 25 0 0 0-35.2-22.85L600 248.5 185.2 63.4A25 25 0 0 0 150 86.2V1050a50 50 0 0 0 50 50m750-898.25V1000H250V201.75l350 156.2zM600 525l-146.95-77.25 28.05 163.6-118.85 115.9 164.3 23.9L600 900l73.5-148.85 164.25-23.9-118.85-115.9 28-163.6z" glyph-name="bookmark-3-line" horiz-adv-x="1200" unicode=""/><glyph d="M250 1100h700a50 50 0 0 0 50-50V92.85a25 25 0 0 0-38.3-21.2L600 298.5 238.3 71.7A25 25 0 0 0 200 92.85V1050a50 50 0 0 0 50 50" glyph-name="bookmark-fill" horiz-adv-x="1200" unicode=""/><glyph d="M250 1100h700a50 50 0 0 0 50-50V92.85a25 25 0 0 0-38.3-21.2L600 298.5 238.3 71.7A25 25 0 0 0 200 92.85V1050a50 50 0 0 0 50 50m650-100H300V228.4l300 188.05L900 228.4z" glyph-name="bookmark-line" horiz-adv-x="1200" unicode=""/><glyph d="m475 650 7.2-.35a75 75 0 0 0 67.5-67.45l.3-7.2-.35-7.2a75 75 0 0 0-67.45-67.5l-7.2-.3H300V400h175c85 0 155.85 60.6 171.7 140.95l1.5 9L950 550c35.55 0 69.4 7.45 100 20.8V350a150.05 150.05 0 0 0-100-141.45V150a50 50 0 0 0-50-50H300a50 50 0 0 0-50 50v58.5A150.05 150.05 0 0 0 150 350v200a100 100 0 0 0 100 100zm625 175v-25l-.25-8.8A150 150 0 0 0 958.8 650.25L950 650H633.15a175.05 175.05 0 0 1-147.75 99.7l-10.4.3H250c-36.45 0-70.6-9.75-100.05-26.8L150 900a200 200 0 0 0 200 200h475a275 275 0 0 0 275-275" glyph-name="boxing-fill" horiz-adv-x="1200" unicode=""/><glyph d="M825 1100a275 275 0 0 0 275-275V700c0-44.4-19.3-84.3-50-111.75V350a150.05 150.05 0 0 0-100-141.45V150a50 50 0 0 0-50-50H300a50 50 0 0 0-50 50v58.5A150.05 150.05 0 0 0 150 350v550a200 200 0 0 0 200 200zM475 650H250V350a50 50 0 0 1 44.15-49.65L300 300h600a50 50 0 0 1 49.65 44.15L950 350v200H648.2A175 175 0 0 0 475 400H300v100h175a75 75 0 0 1 74.65 67.8l.35 7.2a75 75 0 0 1-67.8 74.65zm350 350H350a100 100 0 0 1-99.75-92.5L250 900V750h225a175 175 0 0 0 158.15-100H950a50 50 0 0 1 49.65 44.15l.35 5.85v125a175 175 0 0 1-165.4 174.75z" glyph-name="boxing-line" horiz-adv-x="1200" unicode=""/><glyph d="M200 300v185a75 75 0 0 1-75 75h-25v80h25a75 75 0 0 1 75 75v185a150 150 0 0 0 150 150h50V950h-50a50 50 0 0 1-50-50V695a100 100 0 0 0-68.7-95 100 100 0 0 0 68.7-95V300a50 50 0 0 1 50-50h50V150h-50a150 150 0 0 0-150 150m800 185V300a150 150 0 0 0-150-150h-50v100h50a50 50 0 0 1 50 50v205a100 100 0 0 0 68.7 95 100 100 0 0 0-68.7 95v205a50 50 0 0 1-50 50h-50v100h50a150 150 0 0 0 150-150V715a75 75 0 0 1 75-75h25v-80h-25a75 75 0 0 1-75-75" glyph-name="braces-fill" horiz-adv-x="1200" unicode=""/><glyph d="M200 300v185a75 75 0 0 1-75 75h-25v80h25a75 75 0 0 1 75 75v185a150 150 0 0 0 150 150h50V950h-50a50 50 0 0 1-50-50V695a100 100 0 0 0-68.7-95 100 100 0 0 0 68.7-95V300a50 50 0 0 1 50-50h50V150h-50a150 150 0 0 0-150 150m800 185V300a150 150 0 0 0-150-150h-50v100h50a50 50 0 0 1 50 50v205a100 100 0 0 0 68.7 95 100 100 0 0 0-68.7 95v205a50 50 0 0 1-50 50h-50v100h50a150 150 0 0 0 150-150V715a75 75 0 0 1 75-75h25v-80h-25a75 75 0 0 1-75-75" glyph-name="braces-line" horiz-adv-x="1200" unicode=""/><glyph d="M450 1050V950H300V250h150V150H200v900zm300 0h250V150H750v100h150v700H750z" glyph-name="brackets-fill" horiz-adv-x="1200" unicode=""/><glyph d="M450 1050V950H300V250h150V150H200v900zm300 0h250V150H750v100h150v700H750z" glyph-name="brackets-line" horiz-adv-x="1200" unicode=""/><glyph d="M350 950v150a50 50 0 0 0 50 50h400a50 50 0 0 0 50-50V950h200a50 50 0 0 0 50-50V200a50 50 0 0 0-50-50H150a50 50 0 0 0-50 50v700a50 50 0 0 0 50 50zm500-400v150H750V550H450v150H350V550H200V250h800v300zm-400 500V950h300v100z" glyph-name="briefcase-2-fill" horiz-adv-x="1200" unicode=""/><glyph d="M350 950v150a50 50 0 0 0 50 50h400a50 50 0 0 0 50-50V950h200a50 50 0 0 0 50-50V200a50 50 0 0 0-50-50H150a50 50 0 0 0-50 50v700a50 50 0 0 0 50 50zm650-400H200V250h800zm0 300H200V650h150v100h100V650h300v100h100V650h150zm-550 200V950h300v100z" glyph-name="briefcase-2-line" horiz-adv-x="1200" unicode=""/><glyph d="M350 950v150a50 50 0 0 0 50 50h400a50 50 0 0 0 50-50V950h200a50 50 0 0 0 50-50V200a50 50 0 0 0-50-50H150a50 50 0 0 0-50 50v700a50 50 0 0 0 50 50zm500-100V600h150v250zm-100 0H450V600h300zm-400 0H200V600h150zm100 200V950h300v100z" glyph-name="briefcase-3-fill" horiz-adv-x="1200" unicode=""/><glyph d="M350 950v150a50 50 0 0 0 50 50h400a50 50 0 0 0 50-50V950h200a50 50 0 0 0 50-50V200a50 50 0 0 0-50-50H150a50 50 0 0 0-50 50v700a50 50 0 0 0 50 50zm400-100H450V250h300zm-400 0H200V250h150zm500 0V250h150v600zm-400 200V950h300v100z" glyph-name="briefcase-3-line" horiz-adv-x="1200" unicode=""/><glyph d="M450 550V400h300v150h350V200a50 50 0 0 0-50-50H150a50 50 0 0 0-50 50v350zm100 100h100V500H550zM350 950v150a50 50 0 0 0 50 50h400a50 50 0 0 0 50-50V950h200a50 50 0 0 0 50-50V650H750v100H450V650H100v250a50 50 0 0 0 50 50zm100 100V950h300v100z" glyph-name="briefcase-4-fill" horiz-adv-x="1200" unicode=""/><glyph d="M350 950v150a50 50 0 0 0 50 50h400a50 50 0 0 0 50-50V950h200a50 50 0 0 0 50-50V200a50 50 0 0 0-50-50H150a50 50 0 0 0-50 50v700a50 50 0 0 0 50 50zm100-400H200V250h800v300H750V400H450zm550 300H200V650h250v100h300V650h250zM550 650V500h100v150zm-100 400V950h300v100z" glyph-name="briefcase-4-line" horiz-adv-x="1200" unicode=""/><glyph d="M350 950v150a50 50 0 0 0 50 50h400a50 50 0 0 0 50-50V950h200a50 50 0 0 0 50-50V200a50 50 0 0 0-50-50H150a50 50 0 0 0-50 50v700a50 50 0 0 0 50 50zm-50-400v300H200V550zm100 300V550h150v100h100V550h150v300zm500-300h100v300H900zm-450 500V950h300v100z" glyph-name="briefcase-5-fill" horiz-adv-x="1200" unicode=""/><glyph d="M350 950v150a50 50 0 0 0 50 50h400a50 50 0 0 0 50-50V950h200a50 50 0 0 0 50-50V200a50 50 0 0 0-50-50H150a50 50 0 0 0-50 50v700a50 50 0 0 0 50 50zm450-500H650v-50H550v50H400V250h400zM400 850V550h150v50h100v-50h150v300zM300 550v300H200V550zm600 0h100v300H900zM300 450H200V250h100zm600 0V250h100v200zm-450 600V950h300v100z" glyph-name="briefcase-5-line" horiz-adv-x="1200" unicode=""/><glyph d="M350 950v150a50 50 0 0 0 50 50h400a50 50 0 0 0 50-50V950h200a50 50 0 0 0 50-50V200a50 50 0 0 0-50-50H150a50 50 0 0 0-50 50v700a50 50 0 0 0 50 50zM200 450V250h800v200zm350 200V550h100v100zm-100 400V950h300v100z" glyph-name="briefcase-fill" horiz-adv-x="1200" unicode=""/><glyph d="M350 950v150a50 50 0 0 0 50 50h400a50 50 0 0 0 50-50V950h200a50 50 0 0 0 50-50V200a50 50 0 0 0-50-50H150a50 50 0 0 0-50 50v700a50 50 0 0 0 50 50zM200 400V250h800v150zm0 100h800v350H200zm250 550V950h300v100zm100-400h100V550H550z" glyph-name="briefcase-line" horiz-adv-x="1200" unicode=""/><glyph d="M700 1050c27.6 0 50-22.4 50-50V750h250c27.6 0 50-22.4 50-50V200c0-27.6-22.4-50-50-50H500c-27.6 0-50 22.4-50 50v250H200c-27.6 0-50 22.4-50 50v500c0 27.6 22.4 50 50 50zm-50-100H250V550h400z" glyph-name="bring-forward" horiz-adv-x="1200" unicode=""/><glyph d="M550 1050c27.6 0 50-22.4 50-50V900h250c27.6 0 50-22.4 50-50V600h100c27.6 0 50-22.4 50-50V200c0-27.6-22.4-50-50-50H650c-27.6 0-50 22.4-50 50v100H350c-27.6 0-50 22.4-50 50v250H200c-27.6 0-50 22.4-50 50v350c0 27.6 22.4 50 50 50zm250-250H400V400h400z" glyph-name="bring-to-front" horiz-adv-x="1200" unicode=""/><glyph d="m246.45 1053.55 70.7-70.7A398.75 398.75 0 0 1 200 700c0-110.5 44.75-210.5 117.15-282.85L246.5 346.5A498.45 498.45 0 0 0 100 700a498.45 498.45 0 0 0 146.45 353.55m707.1 0A498.45 498.45 0 0 0 1100 700a498.45 498.45 0 0 0-146.45-353.55l-70.7 70.7A398.75 398.75 0 0 1 1000 700c0 110.5-44.75 210.5-117.15 282.85l70.65 70.65zm-565.7-141.4 70.75-70.75A199.35 199.35 0 0 1 400 700c0-55.25 22.4-105.25 58.6-141.4l-70.75-70.75A299.05 299.05 0 0 0 300 700c0 82.85 33.6 157.85 87.85 212.15m424.3 0A299.05 299.05 0 0 0 900 700a299.05 299.05 0 0 0-87.85-212.15L741.4 558.6A199.35 199.35 0 0 1 800 700a199.35 199.35 0 0 1-58.6 141.4zM600 600a100 100 0 1 0 0 200 100 100 0 0 0 0-200m0-100c29 0 53.85-20.65 59.2-49.15L725 100H475l65.8 350.85C546.15 479.35 571 500 600 500" glyph-name="broadcast-fill" horiz-adv-x="1200" unicode=""/><glyph d="m246.45 1053.55 70.7-70.7A398.75 398.75 0 0 1 200 700c0-110.5 44.75-210.5 117.15-282.85L246.5 346.5A498.45 498.45 0 0 0 100 700a498.45 498.45 0 0 0 146.45 353.55m707.1 0A498.45 498.45 0 0 0 1100 700a498.45 498.45 0 0 0-146.45-353.55l-70.7 70.7A398.75 398.75 0 0 1 1000 700c0 110.5-44.75 210.5-117.15 282.85l70.65 70.65zm-565.7-141.4 70.75-70.75A199.35 199.35 0 0 1 400 700c0-55.25 22.4-105.25 58.6-141.4l-70.75-70.75A299.05 299.05 0 0 0 300 700c0 82.85 33.6 157.85 87.85 212.15m424.3 0A299.05 299.05 0 0 0 900 700a299.05 299.05 0 0 0-87.85-212.15L741.4 558.6A199.35 199.35 0 0 1 800 700a199.35 199.35 0 0 1-58.6 141.4zM600 600a100 100 0 1 0 0 200 100 100 0 0 0 0-200m-50-100h100V100H550z" glyph-name="broadcast-line" horiz-adv-x="1200" unicode=""/><glyph d="m826.8 402.5 106 106.1-159.05 159.1L950.5 844.45l-106 106.05-176.8-176.75-159.1 159.1L402.5 826.8zM667.7 915.15l141.4 141.45a50 50 0 0 0 70.7 0l176.8-176.8a50 50 0 0 0 0-70.7L915.15 667.7l123.75-123.75a50 50 0 0 0 0-70.75L650 84.3a50 50 0 0 0-70.7 0l-495 495a50 50 0 0 0 0 70.7l388.9 388.9a50 50 0 0 0 70.75 0z" glyph-name="brush-2-fill" horiz-adv-x="1200" unicode=""/><glyph d="m826.8 402.5 106 106.1-159.05 159.1L950.5 844.45l-106 106.05-176.8-176.75-159.1 159.1L402.5 826.8zm-70.75-70.7L331.8 756.05l-141.4-141.4L614.65 190.4zM667.7 915.15l141.4 141.45a50 50 0 0 0 70.7 0l176.8-176.8a50 50 0 0 0 0-70.7L915.15 667.7l123.75-123.75a50 50 0 0 0 0-70.75L650 84.3a50 50 0 0 0-70.7 0l-495 495a50 50 0 0 0 0 70.7l388.9 388.9a50 50 0 0 0 70.75 0z" glyph-name="brush-2-line" horiz-adv-x="1200" unicode=""/><glyph d="M1000 650v150H700v200H500V800H200V650zm50-100V150a50 50 0 0 0-50-50H500v300H400V100H200a50 50 0 0 0-50 50v400h-50v300a50 50 0 0 0 50 50h250v150a50 50 0 0 0 50 50h300a50 50 0 0 0 50-50V900h250a50 50 0 0 0 50-50V550z" glyph-name="brush-3-fill" horiz-adv-x="1200" unicode=""/><glyph d="M400 200v250h100V200h450v350H250V200zM200 650h800v150H700v200H500V800H200zm-50-500v400h-50v300a50 50 0 0 0 50 50h250v150a50 50 0 0 0 50 50h300a50 50 0 0 0 50-50V900h250a50 50 0 0 0 50-50V550h-50V150a50 50 0 0 0-50-50H200a50 50 0 0 0-50 50" glyph-name="brush-3-line" horiz-adv-x="1200" unicode=""/><glyph d="M1000 400H200V300h800zM150 500v500a50 50 0 0 0 50 50h150V636.35h100V1050h550a50 50 0 0 0 50-50V500h50V250a50 50 0 0 0-50-50H650V50H550v150H150a50 50 0 0 0-50 50v250z" glyph-name="brush-4-fill" horiz-adv-x="1200" unicode=""/><glyph d="M450 950V636.35H350V950H250V500h700v450zm550-550H200V300h800zM150 500v500a50 50 0 0 0 50 50h800a50 50 0 0 0 50-50V500h50V250a50 50 0 0 0-50-50H650V50H550v150H150a50 50 0 0 0-50 50v250z" glyph-name="brush-4-line" horiz-adv-x="1200" unicode=""/><glyph d="m664.45 889.2 246.95 192.05a50 50 0 0 0 66-4.1l149.75-149.7a50 50 0 0 0 4.1-66.05l-192-246.9A375.25 375.25 0 0 0 575.1 149.9C400 149.9 175 225 50 300c199 150 152.35 240.5 175 325 52.9 197.5 242.1 312.85 439.45 264.2m170.65-93.95c3.25-3.15 6.5-6.4 9.65-9.7l56.75-56.7 123.75 159.1-87.3 87.3-159.1-123.75z" glyph-name="brush-fill" horiz-adv-x="1200" unicode=""/><glyph d="m772.8 716.1-7.1 7.1a273.75 273.75 0 0 1-119.5 67.45c-145.35 38.9-284.95-43.45-324.6-191.5-2.15-8-3.3-17-5.2-39.55-7.7-93.5-29.7-163.25-90-234 113-44.4 246.9-75.7 348.7-75.7a275.25 275.25 0 0 1 265.5 203.9 274.85 274.85 0 0 1-67.8 262.3M664.5 889.2l246.95 192.05a50 50 0 0 0 66-4.1l149.75-149.7a50 50 0 0 0 4.1-66.05l-192-246.9a375.25 375.25 0 0 0-364.15-464.6C400 149.9 175 225 50 300c199 150 152.35 240.5 175 325 52.9 197.5 242.1 312.85 439.45 264.2zm170.65-93.95c3.25-3.15 6.5-6.4 9.65-9.7l56.75-56.7 123.75 159.1-87.3 87.3L778.9 851.5z" glyph-name="brush-line" horiz-adv-x="1200" unicode=""/><glyph d="M800 400c82.85 0 150-67.15 150-150s-67.15-150-150-150-150 67.15-150 150 67.15 150 150 150M300 600c110.5 0 200-89.5 200-200s-89.5-200-200-200-200 89.5-200 200 89.5 200 200 200m425 500c151.9 0 275-123.1 275-275S876.9 550 725 550 450 673.1 450 825s123.1 275 275 275" glyph-name="bubble-chart-fill" horiz-adv-x="1200" unicode=""/><glyph d="M800 400c82.85 0 150-67.15 150-150s-67.15-150-150-150-150 67.15-150 150 67.15 150 150 150M300 600c110.5 0 200-89.5 200-200s-89.5-200-200-200-200 89.5-200 200 89.5 200 200 200m500-300c-27.6 0-50-22.4-50-50s22.4-50 50-50 50 22.4 50 50-22.4 50-50 50M300 500c-55.25 0-100-44.75-100-100s44.75-100 100-100 100 44.75 100 100-44.75 100-100 100m425 600c151.9 0 275-123.1 275-275S876.9 550 725 550 450 673.1 450 825s123.1 275 275 275m0-100c-96.65 0-175-78.35-175-175s78.35-175 175-175 175 78.35 175 175-78.35 175-175 175" glyph-name="bubble-chart-line" horiz-adv-x="1200" unicode=""/><glyph d="M253.5 400a353 353 0 0 0-3.5 50v50H150v100h100v50c0 17 1.2 33.65 3.5 50H150v100h133.7a351.5 351.5 0 0 0 142 153.6l-52.5 52.5 70.8 70.65 84.15-84.2a351.5 351.5 0 0 0 143.8 0l84.15 84.2 70.75-70.75-52.5-52.5A351.5 351.5 0 0 0 916.3 800H1050V700H946.5c2.3-16.35 3.5-33 3.5-50v-50h100V500H950v-50c0-17-1.2-33.65-3.5-50H1050V300H916.3a350 350 0 0 0-632.6 0H150v100zM450 700V600h300v100zm0-200V400h300v100z" glyph-name="bug-2-fill" horiz-adv-x="1200" unicode=""/><glyph d="M528.1 992.6a351.5 351.5 0 0 0 143.8 0l84.15 84.2 70.75-70.75-52.5-52.5A351.5 351.5 0 0 0 916.3 800H1050V700H946.5c2.3-16.35 3.5-33 3.5-50v-50h100V500H950v-50c0-17-1.2-33.65-3.5-50H1050V300H916.3a350 350 0 0 0-632.6 0H150v100h103.5a353 353 0 0 0-3.5 50v50H150v100h100v50c0 17 1.2 33.65 3.5 50H150v100h133.7a351.5 351.5 0 0 0 142 153.6l-52.5 52.5 70.8 70.65 84.15-84.2zM600 900a250 250 0 0 1-250-250V450a250 250 0 0 1 500 0v200a250 250 0 0 1-250 250M450 500h300V400H450zm0 200h300V600H450z" glyph-name="bug-2-line" horiz-adv-x="1200" unicode=""/><glyph d="M302.8 785a351 351 0 0 0 9.95 15h574.5c3.45-4.9 6.75-9.95 9.95-15l101 58.3 50-86.6-110.65-63.9c8.1-29.5 12.45-60.65 12.45-92.8v-50h150V450H950c0-47.65-9.5-93.1-26.8-134.5l125-72.2-50-86.6-126.3 72.9A349.6 349.6 0 0 0 650 103.55V500H550V103.5a349.6 349.6 0 0 0-221.9 126.1l-126.3-72.9-50 86.6 125 72.15A349 349 0 0 0 250 450H100v100h150v50c0 32.15 4.35 63.25 12.45 92.8L151.8 756.7l50 86.6zM400 900a200 200 0 1 0 400 0z" glyph-name="bug-fill" horiz-adv-x="1200" unicode=""/><glyph d="M650 205a250.1 250.1 0 0 1 200 245v150a249 249 0 0 1-20.75 100h-458.5A249 249 0 0 1 350 600V450a250.1 250.1 0 0 1 200-245v295h100zM276.8 315.5A349 349 0 0 0 250 450H100v100h150v50c0 32.15 4.35 63.25 12.45 92.8L151.8 756.7l50 86.6 101-58.3a351 351 0 0 0 9.95 15h574.5c3.45-4.9 6.75-9.95 9.95-15l101 58.3 50-86.6-110.65-63.9c8.1-29.5 12.45-60.65 12.45-92.8v-50h150V450H950c0-47.65-9.5-93.1-26.8-134.5l125-72.2-50-86.6-126.3 72.9A349.3 349.3 0 0 0 600 100a349.3 349.3 0 0 0-271.9 129.6l-126.3-72.9-50 86.6 125 72.15zM400 900a200 200 0 1 0 400 0z" glyph-name="bug-line" horiz-adv-x="1200" unicode=""/><glyph d="M600 250h100v650l319.7-137a50 50 0 0 0 30.3-46V250h100V150H50v100h100v667.5a50 50 0 0 0 29.7 45.7l385.15 171.2a25 25 0 0 0 35.15-22.9z" glyph-name="building-2-fill" horiz-adv-x="1200" unicode=""/><glyph d="M150 250v665a50 50 0 0 0 32.9 47l483.55 175.8a25 25 0 0 0 33.55-23.5V866.65l315.8-105.25a50 50 0 0 0 34.2-47.45V250h100V150H50v100zm100 0h350v757.25l-350-127.3zm700 0v427.9l-250 83.35V250z" glyph-name="building-2-line" horiz-adv-x="1200" unicode=""/><glyph d="M500 694.45V1150l550-300V150H150v700z" glyph-name="building-3-fill" horiz-adv-x="1200" unicode=""/><glyph d="M500 694.45V1150l550-300V150H150v700zm100 287.1v-441L250 696.1V250h700v540.65L600 981.5z" glyph-name="building-3-line" horiz-adv-x="1200" unicode=""/><glyph d="M1050 200h100V100H50v100h100v850a50 50 0 0 0 50 50h800a50 50 0 0 0 50-50zM400 650V550h150v100zm0 200V750h150v100zm0-400V350h150v100zm250 0V350h150v100zm0 200V550h150v100zm0 200V750h150v100z" glyph-name="building-4-fill" horiz-adv-x="1200" unicode=""/><glyph d="M1050 200h100V100H50v100h100v850a50 50 0 0 0 50 50h800a50 50 0 0 0 50-50zm-100 0v800H250V200zM400 650h150V550H400zm0 200h150V750H400zm0-400h150V350H400zm250 0h150V350H650zm0 200h150V550H650zm0 200h150V750H650z" glyph-name="building-4-line" horiz-adv-x="1200" unicode=""/><glyph d="M1050 250h100V150H50v100h100v750a50 50 0 0 0 50 50h500a50 50 0 0 0 50-50V250h100v500h150a50 50 0 0 0 50-50zM350 650V550h200v100zm0 200V750h200v100z" glyph-name="building-fill" horiz-adv-x="1200" unicode=""/><glyph d="M1050 250h100V150H50v100h100v750a50 50 0 0 0 50 50h500a50 50 0 0 0 50-50V250h200v400H850v100h150a50 50 0 0 0 50-50zM250 950V250h400v700zm100-300h200V550H350zm0 200h200V750H350z" glyph-name="building-line" horiz-adv-x="1200" unicode=""/><glyph d="M850 200H350v-50a50 50 0 0 0-50-50H200a50 50 0 0 0-50 50v450h-50v200h50v150a100 100 0 0 0 100 100h700a100 100 0 0 0 100-100V800h50V600h-50V150a50 50 0 0 0-50-50H900a50 50 0 0 0-50 50zM250 950V600h700v350zm125-650a75 75 0 1 1 0 150 75 75 0 0 1 0-150m450 0a75 75 0 1 1 0 150 75 75 0 0 1 0-150" glyph-name="bus-2-fill" horiz-adv-x="1200" unicode=""/><glyph d="M850 200H350v-50a50 50 0 0 0-50-50H200a50 50 0 0 0-50 50v450h-50v200h50v150a100 100 0 0 0 100 100h700a100 100 0 0 0 100-100V800h50V600h-50V150a50 50 0 0 0-50-50H900a50 50 0 0 0-50 50zM250 950V650h700v300zm700-400H250V300h700zM375 350a75 75 0 1 0 0 150 75 75 0 0 0 0-150m450 0a75 75 0 1 0 0 150 75 75 0 0 0 0-150" glyph-name="bus-2-line" horiz-adv-x="1200" unicode=""/><glyph d="M850 200H350v-50a50 50 0 0 0-50-50h-50a50 50 0 0 0-50 50v50h-50v400h-50v200h50v150a100 100 0 0 0 100 100h700a100 100 0 0 0 100-100V800h50V600h-50V200h-50v-50a50 50 0 0 0-50-50h-50a50 50 0 0 0-50 50zM250 950V500h700v450zm0-550V300h200v100zm500 0V300h200v100z" glyph-name="bus-fill" horiz-adv-x="1200" unicode=""/><glyph d="M850 200H350v-50a50 50 0 0 0-50-50h-50a50 50 0 0 0-50 50v50h-50v400h-50v200h50v150a100 100 0 0 0 100 100h700a100 100 0 0 0 100-100V800h50V600h-50V200h-50v-50a50 50 0 0 0-50-50h-50a50 50 0 0 0-50 50zm100 400v350H250V600zm0-100H250V300h700zm-650-50h200V350H300zm400 0h200V350H700z" glyph-name="bus-line" horiz-adv-x="1200" unicode=""/><glyph d="M600 1050V950H250V500h700v100h100V200h-50v-50a50 50 0 0 0-50-50h-50a50 50 0 0 0-50 50v50H350v-50a50 50 0 0 0-50-50h-50a50 50 0 0 0-50 50v50h-50v400h-50v200h50v150a100 100 0 0 0 100 100zM450 400H250V300h200zm500 0H750V300h200zm-25 750a225 225 0 1 0 0-450 225 225 0 0 0 0 450m0-258.35c-24.55 0-47-8.85-64.45-23.5l-6.25-5.75 70.7-70.75 70.65 70.8a99.7 99.7 0 0 1-70.65 29.2m0 133.35a232.5 232.5 0 0 1-156.4-60.15l-8.65-8.25 47.2-47.1A166.15 166.15 0 0 0 925 958.35a166 166 0 0 0 110.05-41.5l7.8-7.35 47.15 47.15A232.6 232.6 0 0 1 925 1025" glyph-name="bus-wifi-fill" horiz-adv-x="1200" unicode=""/><glyph d="M600 1050V950H250V600h800V200h-50v-50a50 50 0 0 0-50-50h-50a50 50 0 0 0-50 50v50H350v-50a50 50 0 0 0-50-50h-50a50 50 0 0 0-50 50v50h-50v400h-50v200h50v150a100 100 0 0 0 100 100zm350-550H250V300h700zm-450-50V350H300v100zm400 0V350H700v100zm25 700a225 225 0 1 0 0-450 225 225 0 0 0 0 450m0-258.35c-24.55 0-47-8.85-64.45-23.5l-6.25-5.75 70.7-70.75 70.65 70.8a99.7 99.7 0 0 1-70.65 29.2m0 133.35a232.5 232.5 0 0 1-156.4-60.15l-8.65-8.25 47.2-47.1A166.15 166.15 0 0 0 925 958.35a166 166 0 0 0 110.05-41.5l7.8-7.35 47.15 47.15A232.6 232.6 0 0 1 925 1025" glyph-name="bus-wifi-line" horiz-adv-x="1200" unicode=""/><glyph d="M600 1100c110.5 0 200-89.5 200-200V450h50c27.5 0 50 22.5 50 50v300c0 27.6 22.4 50 50 50s50-22.4 50-50V500c0-82.85-67.15-150-150-150h-50V200h100V100H300v100h100v300h-50c-82.85 0-150 67.15-150 150v100c0 27.6 22.4 50 50 50s50-22.4 50-50V650c0-27.5 22.5-50 50-50h50v300c0 110.5 89.5 200 200 200" glyph-name="cactus-fill" horiz-adv-x="1200" unicode=""/><glyph d="M600 1100c110.5 0 200-89.5 200-200V450h50c27.5 0 50 22.5 50 50v300c0 27.6 22.4 50 50 50s50-22.4 50-50V500c0-83-67-150-150-150h-50V200h100V100H300v100h100v300h-50c-82.85 0-150 67.15-150 150v100c0 27.6 22.4 50 50 50s50-22.4 50-50V650c0-27.5 22.5-50 50-50h50v300c0 110.5 89.5 200 200 200m0-100c-55.25 0-100-44.75-100-100V200h200v700c0 55.25-44.75 100-100 100" glyph-name="cactus-line" horiz-adv-x="1200" unicode=""/><glyph d="M400 900V700.05h150V900h100V700.05h150V900h100V700.05l50-.05a150 150 0 0 0 149.75-141.2l.25-8.8v-50c0-50.7-18.85-97-49.95-132.25L1050 150a50 50 0 0 0-50-50H200a50 50 0 0 0-50 50v218a201.25 201.25 0 0 0-48.6 109.1l-1.1 12.65L100 500v50a150 150 0 0 0 141.2 149.75l8.8.25 50 .05V900zm550-300H250a50 50 0 0 1-49.65-44.15L200 550v-48.55l.15-7.35A100 100 0 0 1 300 400a99.95 99.95 0 0 1 99 85l.75 7.65.25 8.8c1.8 62.4 91.35 64.65 99.45 6.7l.5-6.7.2-7.35a100 100 0 0 1 199.6-1.55l.6 14.1c6.2 57.8 93.1 57.8 99.3 0l.6-14.1a100 100 0 0 1 199.5 0l.25 7.45v50a50 50 0 0 1-44.15 49.65zm-600 550c66-43.55 83.15-104.4 72.45-144.4a75 75 0 0 0-144.9 38.8C292.5 1099.9 350 1075 350 1150m250 0c66-43.55 83.15-104.4 72.45-144.4a75 75 0 1 0-144.9 38.8C542.5 1099.9 600 1075 600 1150m250 0c66-43.55 83.15-104.4 72.45-144.4a75 75 0 1 0-144.9 38.8C792.5 1099.9 850 1075 850 1150" glyph-name="cake-2-fill" horiz-adv-x="1200" unicode=""/><glyph d="M400 900V700.05h150V900h100V700.05h150V900h100V700.05l50-.05a150 150 0 0 0 149.75-141.2l.25-8.8v-50c0-50.7-18.85-97-49.95-132.25L1050 150a50 50 0 0 0-50-50H200a50 50 0 0 0-50 50v218a201.25 201.25 0 0 0-48.6 109.1l-1.1 12.65L100 500v50a150 150 0 0 0 141.2 149.75l8.8.25 50 .05V900zm50.1-532.05-2.7-3.15a199.7 199.7 0 0 0-125.7-63.65l-11.5-.9L300 300c-17.25 0-34 2.2-50 6.3V200h700v106.3a200.35 200.35 0 0 0-187.2 48.15l-7.5 7.5-5.3 5.85-5.35-5.9a199.5 199.5 0 0 0-122.55-60.7l-12.1-1-10-.2a198.85 198.85 0 0 0-139.85 57.2l-7.5 7.85zM950 600H250a50 50 0 0 1-49.65-44.15L200 550v-48.55l.15-7.35A100 100 0 0 1 300 400a99.95 99.95 0 0 1 99 85l.75 7.65.25 8.8c1.8 62.4 91.35 64.65 99.45 6.7l.5-6.7.2-7.35a100 100 0 0 1 199.6-1.55l.6 14.1c6.2 57.8 93.1 57.8 99.3 0l.6-14.1a100 100 0 0 1 199.5 0l.25 7.45v50a50 50 0 0 1-44.15 49.65zm-600 550c66-43.55 83.15-104.4 72.45-144.4a75 75 0 0 0-144.9 38.8C292.5 1099.9 350 1075 350 1150m250 0c66-43.55 83.15-104.4 72.45-144.4a75 75 0 1 0-144.9 38.8C542.5 1099.9 600 1075 600 1150m250 0c66-43.55 83.15-104.4 72.45-144.4a75 75 0 1 0-144.9 38.8C792.5 1099.9 850 1075 850 1150" glyph-name="cake-2-line" horiz-adv-x="1200" unicode=""/><glyph d="M775 1100a175 175 0 0 0 171.85-208.15l-.75-3.3a225.1 225.1 0 0 0 15.15-421.4l-54.3-325.35a50 50 0 0 0-49.3-41.8h-515.3a50 50 0 0 0-49.3 41.8L241.6 450.3a150 150 0 0 0-41.45 291.2L200 750a300 300 0 0 0 428.75 271A174.65 174.65 0 0 0 775 1100M550 450H450V200h100zm200 0H650V200h100zm125 100a125 125 0 1 1-47.8 240.5l-8.75-4.05a100 100 0 0 0-133.15 40.2l-3.5 6.85A200 200 0 0 1 500 950c-107.1 0-194.55-84.2-199.75-188.35l-.25-9.85.15-8.5a100 100 0 0 0-59.3-93.15l-7.5-2.95A50.05 50.05 0 0 1 250 550z" glyph-name="cake-3-fill" horiz-adv-x="1200" unicode=""/><glyph d="M775 1100a175 175 0 0 0 171.85-208.15l-.75-3.3a225.1 225.1 0 0 0 15.15-421.4l-54.3-325.35a50 50 0 0 0-49.3-41.8h-515.3a50 50 0 0 0-49.3 41.8L241.6 450.3a150 150 0 0 0-41.45 291.2L200 750a300 300 0 0 0 428.7 271.05A174.8 174.8 0 0 0 775 1100M450 450H343l41.7-250H450zm200 0H550V200h100zm206.95 0H750V200h65.25zM500 950c-107.1 0-194.55-84.2-199.75-188.35l-.25-9.85.15-8.5a100 100 0 0 0-59.3-93.15l-7.5-2.95A50.05 50.05 0 0 1 250 550h625a125 125 0 1 1-47.8 240.5l-8.75-4.05a100 100 0 0 0-133.15 40.2l-3.5 6.85A200 200 0 0 1 500 950m275 50a75 75 0 0 1-64.35-36.45 300.3 300.3 0 0 0 62-88.2c22.2 11.4 46.5 19.2 72.3 22.65A75 75 0 0 1 775 1000" glyph-name="cake-3-line" horiz-adv-x="1200" unicode=""/><glyph d="M650 850V650h350a50 50 0 0 0 50-50V200h100V100H50v100h100v400a50 50 0 0 0 50 50h350v200zm41.5 329.9A150 150 0 0 0 636.6 975L550 925a150 150 0 0 0 54.9 204.9z" glyph-name="cake-fill" horiz-adv-x="1200" unicode=""/><glyph d="M650 850V650h350a50 50 0 0 0 50-50V200h100V100H50v100h100v400a50 50 0 0 0 50 50h350v200zm300-300H250V200h700zm-258.5 629.9A150 150 0 0 0 636.6 975L550 925a150 150 0 0 0 54.9 204.9z" glyph-name="cake-line" horiz-adv-x="1200" unicode=""/><glyph d="M200 1100h800a50 50 0 0 0 50-50V150a50 50 0 0 0-50-50H200a50 50 0 0 0-50 50v900a50 50 0 0 0 50 50m150-500V500h100v100zm0-200V300h100v100zm200 200V500h100v100zm0-200V300h100v100zm200 200V300h100v300zM350 900V700h500v200z" glyph-name="calculator-fill" horiz-adv-x="1200" unicode=""/><glyph d="M200 1100h800a50 50 0 0 0 50-50V150a50 50 0 0 0-50-50H200a50 50 0 0 0-50 50v900a50 50 0 0 0 50 50m50-100V200h700v800zm100-100h500V700H350zm0-300h100V500H350zm0-200h100V300H350zm200 200h100V500H550zm0-200h100V300H550zm200 200h100V300H750z" glyph-name="calculator-line" horiz-adv-x="1200" unicode=""/><glyph d="M850 1050h200a50 50 0 0 0 50-50V200a50 50 0 0 0-50-50H150a50 50 0 0 0-50 50v800a50 50 0 0 0 50 50h200v100h100v-100h300v100h100zM200 750V250h800v500zm100-100h100V550H300zm250 0h100V550H550zm250 0h100V550H800z" glyph-name="calendar-2-fill" horiz-adv-x="1200" unicode=""/><glyph d="M850 1050h200a50 50 0 0 0 50-50V200a50 50 0 0 0-50-50H150a50 50 0 0 0-50 50v800a50 50 0 0 0 50 50h200v100h100v-100h300v100h100zm150-400H200V250h800zM750 950H450V850H350v100H200V750h800v200H850V850H750zM300 550h100V450H300zm250 0h100V450H550zm250 0h100V450H800z" glyph-name="calendar-2-line" horiz-adv-x="1200" unicode=""/><glyph d="M450 1150v-100h300v100h100v-100h200a50 50 0 0 0 50-50V200a50 50 0 0 0-50-50H150a50 50 0 0 0-50 50v800a50 50 0 0 0 50 50h200v100zm550-350H200V250h800zM751.8 693.2l70.7-70.7L575 375 398.2 551.8l70.8 70.7 106.05-106.1 176.8 176.8z" glyph-name="calendar-check-fill" horiz-adv-x="1200" unicode=""/><glyph d="M450 1150v-100h300v100h100v-100h200a50 50 0 0 0 50-50V200a50 50 0 0 0-50-50H150a50 50 0 0 0-50 50v800a50 50 0 0 0 50 50h200v100zm550-450H200V250h800zm-248.2-56.8 70.7-70.7L575 325 398.2 501.8l70.8 70.7 106.05-106.1 176.8 176.8zM350 950H200V800h800v150H850v-50H750v50H450v-50H350z" glyph-name="calendar-check-line" horiz-adv-x="1200" unicode=""/><glyph d="M850 1050h200a50 50 0 0 0 50-50V200a50 50 0 0 0-50-50H150a50 50 0 0 0-50 50v800a50 50 0 0 0 50 50h200v100h100v-100h300v100h100zM200 750V250h800v500zm100-200h250V350H300z" glyph-name="calendar-event-fill" horiz-adv-x="1200" unicode=""/><glyph d="M850 1050h200a50 50 0 0 0 50-50V200a50 50 0 0 0-50-50H150a50 50 0 0 0-50 50v800a50 50 0 0 0 50 50h200v100h100v-100h300v100h100zm150-300v200H850V850H750v100H450V850H350v100H200V750zm0-100H200V250h800zM300 550h250V350H300z" glyph-name="calendar-event-line" horiz-adv-x="1200" unicode=""/><glyph d="M100 650h1000V200a50 50 0 0 0-50-50H150a50 50 0 0 0-50 50zm750 400h200a50 50 0 0 0 50-50V750H100v250a50 50 0 0 0 50 50h200v100h100v-100h300v100h100z" glyph-name="calendar-fill" horiz-adv-x="1200" unicode=""/><glyph d="M850 1050h200a50 50 0 0 0 50-50V200a50 50 0 0 0-50-50H150a50 50 0 0 0-50 50v800a50 50 0 0 0 50 50h200v100h100v-100h300v100h100zM750 950H450V850H350v100H200V750h800v200H850V850H750zm250-300H200V250h800z" glyph-name="calendar-line" horiz-adv-x="1200" unicode=""/><glyph d="M850 1050h200a50 50 0 0 0 50-50V200a50 50 0 0 0-50-50H150a50 50 0 0 0-50 50v800a50 50 0 0 0 50 50h200v100h100v-100h300v100h100zM200 750V250h800v500zm100-100h100V550H300zm0-200h100V350H300zm200 200h400V550H500zm0-200h250V350H500z" glyph-name="calendar-todo-fill" horiz-adv-x="1200" unicode=""/><glyph d="M850 1050h200a50 50 0 0 0 50-50V200a50 50 0 0 0-50-50H150a50 50 0 0 0-50 50v800a50 50 0 0 0 50 50h200v100h100v-100h300v100h100zM750 950H450V850H350v100H200V750h800v200H850V850H750zm250-300H200V250h800zM300 500h100V400H300zm200 0h400V400H500z" glyph-name="calendar-todo-line" horiz-adv-x="1200" unicode=""/><glyph d="M100 1000.35a50 50 0 0 0 49.6 49.65h900.8c27.4 0 49.6-22.25 49.6-49.65v-800.7a50 50 0 0 0-49.6-49.65H149.6a49.65 49.65 0 0 0-49.6 49.65zM600 450a150 150 0 1 0 0 300 150 150 0 0 0 0-300m0-100a250 250 0 1 1 0 500 250 250 0 0 1 0-500m300 600V850h100v100z" glyph-name="camera-2-fill" horiz-adv-x="1200" unicode=""/><glyph d="M100 1000.35a50 50 0 0 0 49.6 49.65h900.8c27.4 0 49.6-22.25 49.6-49.65v-800.7a50 50 0 0 0-49.6-49.65H149.6a49.65 49.65 0 0 0-49.6 49.65zM200 950V250h800v700zm400-500a150 150 0 1 1 0 300 150 150 0 0 1 0-300m0-100a250 250 0 1 0 0 500 250 250 0 0 0 0-500m250 550h100V800H850z" glyph-name="camera-2-line" horiz-adv-x="1200" unicode=""/><glyph d="M100 900c0 27.6 22.75 50 49.6 50h900.8c27.4 0 49.6-22.25 49.6-50V200c0-27.6-22.75-50-49.6-50H149.6a49.7 49.7 0 0 0-49.6 50zm600-600a250 250 0 1 1 0 500 250 250 0 0 1 0-500M200 850V750h150v100zm0 250h300v-100H200z" glyph-name="camera-3-fill" horiz-adv-x="1200" unicode=""/><glyph d="M100 900c0 27.6 22.75 50 49.6 50h900.8c27.4 0 49.6-22.25 49.6-50V200c0-27.6-22.75-50-49.6-50H149.6a49.7 49.7 0 0 0-49.6 50zm100-50V250h800v600zm500-450a150 150 0 1 1 0 300 150 150 0 0 1 0-300m0-100a250 250 0 1 0 0 500 250 250 0 0 0 0-500m-500 800h300v-100H200z" glyph-name="camera-3-line" horiz-adv-x="1200" unicode=""/></font>
</defs>
</svg>
